<?xml version="1.0" encoding="UTF-8" standalone="no"?>
<!DOCTYPE svg PUBLIC "-//W3C//DTD SVG 1.1//EN"
 "http://www.w3.org/Graphics/SVG/1.1/DTD/svg11.dtd">
<!-- Generated by graphviz version 2.40.1 (20161225.0304)
 -->
<!-- Title: %0 Pages: 1 -->
<svg width="1886pt" height="1300pt"
 viewBox="0.00 0.00 1885.59 1300.40" xmlns="http://www.w3.org/2000/svg" xmlns:xlink="http://www.w3.org/1999/xlink">
<g id="graph0" class="graph" transform="scale(1 1) rotate(0) translate(4 1296.4)">
<title>%0</title>
<polygon fill="#ffffff" stroke="transparent" points="-4,4 -4,-1296.4 1881.5938,-1296.4 1881.5938,4 -4,4"/>
<text text-anchor="middle" x="938.7969" y="-8.2" font-family="Helvetica,sans-Serif" font-size="14.00" fill="#000000">nodes=70</text>
<!-- 67235224 -->
<g id="node1" class="node">
<title>67235224</title>
<path fill="none" stroke="#000000" d="M896.6771,-1244.7C896.6771,-1244.7 1038.9168,-1244.7 1038.9168,-1244.7 1044.9168,-1244.7 1050.9168,-1250.7 1050.9168,-1256.7 1050.9168,-1256.7 1050.9168,-1279.9 1050.9168,-1279.9 1050.9168,-1285.9 1044.9168,-1291.9 1038.9168,-1291.9 1038.9168,-1291.9 896.6771,-1291.9 896.6771,-1291.9 890.6771,-1291.9 884.6771,-1285.9 884.6771,-1279.9 884.6771,-1279.9 884.6771,-1256.7 884.6771,-1256.7 884.6771,-1250.7 890.6771,-1244.7 896.6771,-1244.7"/>
<text text-anchor="middle" x="967.7969" y="-1276.2" font-family="Helvetica,sans-Serif" font-size="13.00" fill="#000000">setTatami_rowscan(1,1,1)</text>
<polyline fill="none" stroke="#000000" points="884.6771,-1268.3 1050.9168,-1268.3 "/>
<text text-anchor="middle" x="967.7969" y="-1252.6" font-family="Helvetica,sans-Serif" font-size="13.00" fill="#000000">ret: None</text>
</g>
<!-- 67234224 -->
<g id="node2" class="node">
<title>67234224</title>
<path fill="none" stroke="#000000" d="M651.6771,-1150.9C651.6771,-1150.9 793.9168,-1150.9 793.9168,-1150.9 799.9168,-1150.9 805.9168,-1156.9 805.9168,-1162.9 805.9168,-1162.9 805.9168,-1186.1 805.9168,-1186.1 805.9168,-1192.1 799.9168,-1198.1 793.9168,-1198.1 793.9168,-1198.1 651.6771,-1198.1 651.6771,-1198.1 645.6771,-1198.1 639.6771,-1192.1 639.6771,-1186.1 639.6771,-1186.1 639.6771,-1162.9 639.6771,-1162.9 639.6771,-1156.9 645.6771,-1150.9 651.6771,-1150.9"/>
<text text-anchor="middle" x="722.7969" y="-1182.4" font-family="Helvetica,sans-Serif" font-size="13.00" fill="#000000">setTatami_rowscan(1,3,2)</text>
<polyline fill="none" stroke="#000000" points="639.6771,-1174.5 805.9168,-1174.5 "/>
<text text-anchor="middle" x="722.7969" y="-1158.8" font-family="Helvetica,sans-Serif" font-size="13.00" fill="#000000">ret: None</text>
</g>
<!-- 67235224&#45;&gt;67234224 -->
<g id="edge1" class="edge">
<title>67235224&#45;&gt;67234224</title>
<path fill="none" stroke="#020202" d="M905.9731,-1244.6303C872.0246,-1231.6329 829.7586,-1215.451 794.3833,-1201.9073"/>
<polygon fill="#020202" stroke="#020202" points="795.1914,-1198.469 784.601,-1198.1621 792.6885,-1205.0063 795.1914,-1198.469"/>
<text text-anchor="middle" x="866.5773" y="-1219" font-family="Helvetica,sans-Serif" font-size="8.00" fill="#999999">1 (⇑30)</text>
</g>
<!-- 67223936 -->
<g id="node32" class="node">
<title>67223936</title>
<path fill="none" stroke="#000000" d="M1088.6771,-1150.9C1088.6771,-1150.9 1230.9168,-1150.9 1230.9168,-1150.9 1236.9168,-1150.9 1242.9168,-1156.9 1242.9168,-1162.9 1242.9168,-1162.9 1242.9168,-1186.1 1242.9168,-1186.1 1242.9168,-1192.1 1236.9168,-1198.1 1230.9168,-1198.1 1230.9168,-1198.1 1088.6771,-1198.1 1088.6771,-1198.1 1082.6771,-1198.1 1076.6771,-1192.1 1076.6771,-1186.1 1076.6771,-1186.1 1076.6771,-1162.9 1076.6771,-1162.9 1076.6771,-1156.9 1082.6771,-1150.9 1088.6771,-1150.9"/>
<text text-anchor="middle" x="1159.7969" y="-1182.4" font-family="Helvetica,sans-Serif" font-size="13.00" fill="#000000">setTatami_rowscan(1,2,2)</text>
<polyline fill="none" stroke="#000000" points="1076.6771,-1174.5 1242.9168,-1174.5 "/>
<text text-anchor="middle" x="1159.7969" y="-1158.8" font-family="Helvetica,sans-Serif" font-size="13.00" fill="#000000">ret: None</text>
</g>
<!-- 67235224&#45;&gt;67223936 -->
<g id="edge2" class="edge">
<title>67235224&#45;&gt;67223936</title>
<path fill="none" stroke="#3e3e3e" d="M1016.2466,-1244.6303C1042.3963,-1231.8551 1074.8434,-1216.0033 1102.2702,-1202.6042"/>
<polygon fill="#3e3e3e" stroke="#3e3e3e" points="1103.914,-1205.6965 1111.3627,-1198.1621 1100.8412,-1199.407 1103.914,-1205.6965"/>
<text text-anchor="middle" x="1085.8009" y="-1219" font-family="Helvetica,sans-Serif" font-size="8.00" fill="#999999">31 (⇑69)</text>
</g>
<!-- 62431352 -->
<g id="node3" class="node">
<title>62431352</title>
<path fill="none" stroke="#000000" d="M452.6771,-1057.1C452.6771,-1057.1 594.9168,-1057.1 594.9168,-1057.1 600.9168,-1057.1 606.9168,-1063.1 606.9168,-1069.1 606.9168,-1069.1 606.9168,-1092.3 606.9168,-1092.3 606.9168,-1098.3 600.9168,-1104.3 594.9168,-1104.3 594.9168,-1104.3 452.6771,-1104.3 452.6771,-1104.3 446.6771,-1104.3 440.6771,-1098.3 440.6771,-1092.3 440.6771,-1092.3 440.6771,-1069.1 440.6771,-1069.1 440.6771,-1063.1 446.6771,-1057.1 452.6771,-1057.1"/>
<text text-anchor="middle" x="523.7969" y="-1088.6" font-family="Helvetica,sans-Serif" font-size="13.00" fill="#000000">setTatami_rowscan(1,5,3)</text>
<polyline fill="none" stroke="#000000" points="440.6771,-1080.7 606.9168,-1080.7 "/>
<text text-anchor="middle" x="523.7969" y="-1065" font-family="Helvetica,sans-Serif" font-size="13.00" fill="#000000">ret: None</text>
</g>
<!-- 67234224&#45;&gt;62431352 -->
<g id="edge3" class="edge">
<title>67234224&#45;&gt;62431352</title>
<path fill="none" stroke="#040404" d="M672.5808,-1150.8303C645.3599,-1137.9995 611.5551,-1122.0654 583.0504,-1108.6295"/>
<polygon fill="#040404" stroke="#040404" points="584.5348,-1105.4599 573.9969,-1104.3621 581.5502,-1111.7918 584.5348,-1105.4599"/>
<text text-anchor="middle" x="643.5773" y="-1125.2" font-family="Helvetica,sans-Serif" font-size="8.00" fill="#999999">2 (⇑12)</text>
</g>
<!-- 62397232 -->
<g id="node15" class="node">
<title>62397232</title>
<path fill="none" stroke="#000000" d="M651.6771,-1057.1C651.6771,-1057.1 793.9168,-1057.1 793.9168,-1057.1 799.9168,-1057.1 805.9168,-1063.1 805.9168,-1069.1 805.9168,-1069.1 805.9168,-1092.3 805.9168,-1092.3 805.9168,-1098.3 799.9168,-1104.3 793.9168,-1104.3 793.9168,-1104.3 651.6771,-1104.3 651.6771,-1104.3 645.6771,-1104.3 639.6771,-1098.3 639.6771,-1092.3 639.6771,-1092.3 639.6771,-1069.1 639.6771,-1069.1 639.6771,-1063.1 645.6771,-1057.1 651.6771,-1057.1"/>
<text text-anchor="middle" x="722.7969" y="-1088.6" font-family="Helvetica,sans-Serif" font-size="13.00" fill="#000000">setTatami_rowscan(1,4,3)</text>
<polyline fill="none" stroke="#000000" points="639.6771,-1080.7 805.9168,-1080.7 "/>
<text text-anchor="middle" x="722.7969" y="-1065" font-family="Helvetica,sans-Serif" font-size="13.00" fill="#000000">ret: None</text>
</g>
<!-- 67234224&#45;&gt;62397232 -->
<g id="edge4" class="edge">
<title>67234224&#45;&gt;62397232</title>
<path fill="none" stroke="#1c1c1c" d="M722.7969,-1150.8303C722.7969,-1139.8325 722.7969,-1126.5547 722.7969,-1114.5244"/>
<polygon fill="#1c1c1c" stroke="#1c1c1c" points="726.297,-1114.3621 722.7969,-1104.3621 719.297,-1114.3622 726.297,-1114.3621"/>
<text text-anchor="middle" x="738.8009" y="-1125.2" font-family="Helvetica,sans-Serif" font-size="8.00" fill="#999999">14 (⇑29)</text>
</g>
<!-- 67227824 -->
<g id="node4" class="node">
<title>67227824</title>
<path fill="none" stroke="#000000" d="M407.6771,-963.3C407.6771,-963.3 549.9168,-963.3 549.9168,-963.3 555.9168,-963.3 561.9168,-969.3 561.9168,-975.3 561.9168,-975.3 561.9168,-998.5 561.9168,-998.5 561.9168,-1004.5 555.9168,-1010.5 549.9168,-1010.5 549.9168,-1010.5 407.6771,-1010.5 407.6771,-1010.5 401.6771,-1010.5 395.6771,-1004.5 395.6771,-998.5 395.6771,-998.5 395.6771,-975.3 395.6771,-975.3 395.6771,-969.3 401.6771,-963.3 407.6771,-963.3"/>
<text text-anchor="middle" x="478.7969" y="-994.8" font-family="Helvetica,sans-Serif" font-size="13.00" fill="#000000">setTatami_rowscan(2,1,3)</text>
<polyline fill="none" stroke="#000000" points="395.6771,-986.9 561.9168,-986.9 "/>
<text text-anchor="middle" x="478.7969" y="-971.2" font-family="Helvetica,sans-Serif" font-size="13.00" fill="#000000">ret: None</text>
</g>
<!-- 62431352&#45;&gt;67227824 -->
<g id="edge5" class="edge">
<title>62431352&#45;&gt;67227824</title>
<path fill="none" stroke="#060606" d="M512.4415,-1057.0303C507.0055,-1045.6992 500.4084,-1031.9479 494.501,-1019.6343"/>
<polygon fill="#060606" stroke="#060606" points="497.6298,-1018.0643 490.1487,-1010.5621 491.3185,-1021.0922 497.6298,-1018.0643"/>
<text text-anchor="middle" x="516.5773" y="-1031.4" font-family="Helvetica,sans-Serif" font-size="8.00" fill="#999999">3 (⇑11)</text>
</g>
<!-- 67226504 -->
<g id="node5" class="node">
<title>67226504</title>
<path fill="none" stroke="#000000" d="M223.6771,-869.5C223.6771,-869.5 365.9168,-869.5 365.9168,-869.5 371.9168,-869.5 377.9168,-875.5 377.9168,-881.5 377.9168,-881.5 377.9168,-904.7 377.9168,-904.7 377.9168,-910.7 371.9168,-916.7 365.9168,-916.7 365.9168,-916.7 223.6771,-916.7 223.6771,-916.7 217.6771,-916.7 211.6771,-910.7 211.6771,-904.7 211.6771,-904.7 211.6771,-881.5 211.6771,-881.5 211.6771,-875.5 217.6771,-869.5 223.6771,-869.5"/>
<text text-anchor="middle" x="294.7969" y="-901" font-family="Helvetica,sans-Serif" font-size="13.00" fill="#000000">setTatami_rowscan(2,3,4)</text>
<polyline fill="none" stroke="#000000" points="211.6771,-893.1 377.9168,-893.1 "/>
<text text-anchor="middle" x="294.7969" y="-877.4" font-family="Helvetica,sans-Serif" font-size="13.00" fill="#000000">ret: None</text>
</g>
<!-- 67227824&#45;&gt;67226504 -->
<g id="edge6" class="edge">
<title>67227824&#45;&gt;67226504</title>
<path fill="none" stroke="#080808" d="M432.3659,-963.2303C407.4148,-950.5106 376.481,-934.7411 350.2697,-921.3791"/>
<polygon fill="#080808" stroke="#080808" points="351.7118,-918.1857 341.213,-916.7621 348.5325,-924.4221 351.7118,-918.1857"/>
<text text-anchor="middle" x="404.3537" y="-937.6" font-family="Helvetica,sans-Serif" font-size="8.00" fill="#999999">4 (⇑1)</text>
</g>
<!-- 67227264 -->
<g id="node6" class="node">
<title>67227264</title>
<path fill="none" stroke="#000000" d="M407.6771,-869.5C407.6771,-869.5 549.9168,-869.5 549.9168,-869.5 555.9168,-869.5 561.9168,-875.5 561.9168,-881.5 561.9168,-881.5 561.9168,-904.7 561.9168,-904.7 561.9168,-910.7 555.9168,-916.7 549.9168,-916.7 549.9168,-916.7 407.6771,-916.7 407.6771,-916.7 401.6771,-916.7 395.6771,-910.7 395.6771,-904.7 395.6771,-904.7 395.6771,-881.5 395.6771,-881.5 395.6771,-875.5 401.6771,-869.5 407.6771,-869.5"/>
<text text-anchor="middle" x="478.7969" y="-901" font-family="Helvetica,sans-Serif" font-size="13.00" fill="#000000">setTatami_rowscan(2,2,4)</text>
<polyline fill="none" stroke="#000000" points="395.6771,-893.1 561.9168,-893.1 "/>
<text text-anchor="middle" x="478.7969" y="-877.4" font-family="Helvetica,sans-Serif" font-size="13.00" fill="#000000">ret: None</text>
</g>
<!-- 67227824&#45;&gt;67227264 -->
<g id="edge7" class="edge">
<title>67227824&#45;&gt;67227264</title>
<path fill="none" stroke="#0a0a0a" d="M478.7969,-963.2303C478.7969,-952.2325 478.7969,-938.9547 478.7969,-926.9244"/>
<polygon fill="#0a0a0a" stroke="#0a0a0a" points="482.297,-926.7621 478.7969,-916.7621 475.297,-926.7622 482.297,-926.7621"/>
<text text-anchor="middle" x="492.5773" y="-937.6" font-family="Helvetica,sans-Serif" font-size="8.00" fill="#999999">5 (⇑10)</text>
</g>
<!-- 67219456 -->
<g id="node7" class="node">
<title>67219456</title>
<path fill="none" stroke="#000000" d="M223.6771,-775.7C223.6771,-775.7 365.9168,-775.7 365.9168,-775.7 371.9168,-775.7 377.9168,-781.7 377.9168,-787.7 377.9168,-787.7 377.9168,-810.9 377.9168,-810.9 377.9168,-816.9 371.9168,-822.9 365.9168,-822.9 365.9168,-822.9 223.6771,-822.9 223.6771,-822.9 217.6771,-822.9 211.6771,-816.9 211.6771,-810.9 211.6771,-810.9 211.6771,-787.7 211.6771,-787.7 211.6771,-781.7 217.6771,-775.7 223.6771,-775.7"/>
<text text-anchor="middle" x="294.7969" y="-807.2" font-family="Helvetica,sans-Serif" font-size="13.00" fill="#000000">setTatami_rowscan(2,4,5)</text>
<polyline fill="none" stroke="#000000" points="211.6771,-799.3 377.9168,-799.3 "/>
<text text-anchor="middle" x="294.7969" y="-783.6" font-family="Helvetica,sans-Serif" font-size="13.00" fill="#000000">ret: None</text>
</g>
<!-- 67227264&#45;&gt;67219456 -->
<g id="edge8" class="edge">
<title>67227264&#45;&gt;67219456</title>
<path fill="none" stroke="#0c0c0c" d="M432.3659,-869.4303C407.4148,-856.7106 376.481,-840.9411 350.2697,-827.5791"/>
<polygon fill="#0c0c0c" stroke="#0c0c0c" points="351.7118,-824.3857 341.213,-822.9621 348.5325,-830.6221 351.7118,-824.3857"/>
<text text-anchor="middle" x="404.3537" y="-843.8" font-family="Helvetica,sans-Serif" font-size="8.00" fill="#999999">6 (⇑8)</text>
</g>
<!-- 67223480 -->
<g id="node14" class="node">
<title>67223480</title>
<path fill="none" stroke="#000000" d="M407.6771,-775.7C407.6771,-775.7 549.9168,-775.7 549.9168,-775.7 555.9168,-775.7 561.9168,-781.7 561.9168,-787.7 561.9168,-787.7 561.9168,-810.9 561.9168,-810.9 561.9168,-816.9 555.9168,-822.9 549.9168,-822.9 549.9168,-822.9 407.6771,-822.9 407.6771,-822.9 401.6771,-822.9 395.6771,-816.9 395.6771,-810.9 395.6771,-810.9 395.6771,-787.7 395.6771,-787.7 395.6771,-781.7 401.6771,-775.7 407.6771,-775.7"/>
<text text-anchor="middle" x="478.7969" y="-807.2" font-family="Helvetica,sans-Serif" font-size="13.00" fill="#000000">setTatami_rowscan(2,3,5)</text>
<polyline fill="none" stroke="#000000" points="395.6771,-799.3 561.9168,-799.3 "/>
<text text-anchor="middle" x="478.7969" y="-783.6" font-family="Helvetica,sans-Serif" font-size="13.00" fill="#000000">ret: None</text>
</g>
<!-- 67227264&#45;&gt;67223480 -->
<g id="edge9" class="edge">
<title>67227264&#45;&gt;67223480</title>
<path fill="none" stroke="#1a1a1a" d="M478.7969,-869.4303C478.7969,-858.4325 478.7969,-845.1547 478.7969,-833.1244"/>
<polygon fill="#1a1a1a" stroke="#1a1a1a" points="482.297,-832.9621 478.7969,-822.9621 475.297,-832.9622 482.297,-832.9621"/>
<text text-anchor="middle" x="492.5773" y="-843.8" font-family="Helvetica,sans-Serif" font-size="8.00" fill="#999999">13 (⇑9)</text>
</g>
<!-- 67220216 -->
<g id="node8" class="node">
<title>67220216</title>
<path fill="none" stroke="#000000" d="M223.6771,-681.9C223.6771,-681.9 365.9168,-681.9 365.9168,-681.9 371.9168,-681.9 377.9168,-687.9 377.9168,-693.9 377.9168,-693.9 377.9168,-717.1 377.9168,-717.1 377.9168,-723.1 371.9168,-729.1 365.9168,-729.1 365.9168,-729.1 223.6771,-729.1 223.6771,-729.1 217.6771,-729.1 211.6771,-723.1 211.6771,-717.1 211.6771,-717.1 211.6771,-693.9 211.6771,-693.9 211.6771,-687.9 217.6771,-681.9 223.6771,-681.9"/>
<text text-anchor="middle" x="294.7969" y="-713.4" font-family="Helvetica,sans-Serif" font-size="13.00" fill="#000000">setTatami_rowscan(2,5,6)</text>
<polyline fill="none" stroke="#000000" points="211.6771,-705.5 377.9168,-705.5 "/>
<text text-anchor="middle" x="294.7969" y="-689.8" font-family="Helvetica,sans-Serif" font-size="13.00" fill="#000000">ret: None</text>
</g>
<!-- 67219456&#45;&gt;67220216 -->
<g id="edge10" class="edge">
<title>67219456&#45;&gt;67220216</title>
<path fill="none" stroke="#0e0e0e" d="M294.7969,-775.6303C294.7969,-764.6325 294.7969,-751.3547 294.7969,-739.3244"/>
<polygon fill="#0e0e0e" stroke="#0e0e0e" points="298.297,-739.1621 294.7969,-729.1621 291.297,-739.1622 298.297,-739.1621"/>
<text text-anchor="middle" x="306.3537" y="-750" font-family="Helvetica,sans-Serif" font-size="8.00" fill="#999999">7 (⇑7)</text>
</g>
<!-- 67217640 -->
<g id="node9" class="node">
<title>67217640</title>
<path fill="none" stroke="#000000" d="M223.6771,-588.1C223.6771,-588.1 365.9168,-588.1 365.9168,-588.1 371.9168,-588.1 377.9168,-594.1 377.9168,-600.1 377.9168,-600.1 377.9168,-623.3 377.9168,-623.3 377.9168,-629.3 371.9168,-635.3 365.9168,-635.3 365.9168,-635.3 223.6771,-635.3 223.6771,-635.3 217.6771,-635.3 211.6771,-629.3 211.6771,-623.3 211.6771,-623.3 211.6771,-600.1 211.6771,-600.1 211.6771,-594.1 217.6771,-588.1 223.6771,-588.1"/>
<text text-anchor="middle" x="294.7969" y="-619.6" font-family="Helvetica,sans-Serif" font-size="13.00" fill="#000000">setTatami_rowscan(3,1,6)</text>
<polyline fill="none" stroke="#000000" points="211.6771,-611.7 377.9168,-611.7 "/>
<text text-anchor="middle" x="294.7969" y="-596" font-family="Helvetica,sans-Serif" font-size="13.00" fill="#000000">ret: None</text>
</g>
<!-- 67220216&#45;&gt;67217640 -->
<g id="edge11" class="edge">
<title>67220216&#45;&gt;67217640</title>
<path fill="none" stroke="#101010" d="M294.7969,-681.8303C294.7969,-670.8325 294.7969,-657.5547 294.7969,-645.5244"/>
<polygon fill="#101010" stroke="#101010" points="298.297,-645.3621 294.7969,-635.3621 291.297,-645.3622 298.297,-645.3621"/>
<text text-anchor="middle" x="306.3537" y="-656.2" font-family="Helvetica,sans-Serif" font-size="8.00" fill="#999999">8 (⇑6)</text>
</g>
<!-- 67218400 -->
<g id="node10" class="node">
<title>67218400</title>
<path fill="none" stroke="#000000" d="M223.6771,-494.3C223.6771,-494.3 365.9168,-494.3 365.9168,-494.3 371.9168,-494.3 377.9168,-500.3 377.9168,-506.3 377.9168,-506.3 377.9168,-529.5 377.9168,-529.5 377.9168,-535.5 371.9168,-541.5 365.9168,-541.5 365.9168,-541.5 223.6771,-541.5 223.6771,-541.5 217.6771,-541.5 211.6771,-535.5 211.6771,-529.5 211.6771,-529.5 211.6771,-506.3 211.6771,-506.3 211.6771,-500.3 217.6771,-494.3 223.6771,-494.3"/>
<text text-anchor="middle" x="294.7969" y="-525.8" font-family="Helvetica,sans-Serif" font-size="13.00" fill="#000000">setTatami_rowscan(3,2,6)</text>
<polyline fill="none" stroke="#000000" points="211.6771,-517.9 377.9168,-517.9 "/>
<text text-anchor="middle" x="294.7969" y="-502.2" font-family="Helvetica,sans-Serif" font-size="13.00" fill="#000000">ret: None</text>
</g>
<!-- 67217640&#45;&gt;67218400 -->
<g id="edge12" class="edge">
<title>67217640&#45;&gt;67218400</title>
<path fill="none" stroke="#121212" d="M294.7969,-588.0303C294.7969,-577.0325 294.7969,-563.7547 294.7969,-551.7244"/>
<polygon fill="#121212" stroke="#121212" points="298.297,-551.5621 294.7969,-541.5621 291.297,-551.5622 298.297,-551.5621"/>
<text text-anchor="middle" x="306.3537" y="-562.4" font-family="Helvetica,sans-Serif" font-size="8.00" fill="#999999">9 (⇑5)</text>
</g>
<!-- 67221200 -->
<g id="node11" class="node">
<title>67221200</title>
<path fill="none" stroke="#000000" d="M223.6771,-400.5C223.6771,-400.5 365.9168,-400.5 365.9168,-400.5 371.9168,-400.5 377.9168,-406.5 377.9168,-412.5 377.9168,-412.5 377.9168,-435.7 377.9168,-435.7 377.9168,-441.7 371.9168,-447.7 365.9168,-447.7 365.9168,-447.7 223.6771,-447.7 223.6771,-447.7 217.6771,-447.7 211.6771,-441.7 211.6771,-435.7 211.6771,-435.7 211.6771,-412.5 211.6771,-412.5 211.6771,-406.5 217.6771,-400.5 223.6771,-400.5"/>
<text text-anchor="middle" x="294.7969" y="-432" font-family="Helvetica,sans-Serif" font-size="13.00" fill="#000000">setTatami_rowscan(3,4,7)</text>
<polyline fill="none" stroke="#000000" points="211.6771,-424.1 377.9168,-424.1 "/>
<text text-anchor="middle" x="294.7969" y="-408.4" font-family="Helvetica,sans-Serif" font-size="13.00" fill="#000000">ret: None</text>
</g>
<!-- 67218400&#45;&gt;67221200 -->
<g id="edge13" class="edge">
<title>67218400&#45;&gt;67221200</title>
<path fill="none" stroke="#141414" d="M294.7969,-494.2303C294.7969,-483.2325 294.7969,-469.9547 294.7969,-457.9244"/>
<polygon fill="#141414" stroke="#141414" points="298.297,-457.7621 294.7969,-447.7621 291.297,-457.7622 298.297,-457.7621"/>
<text text-anchor="middle" x="308.5773" y="-468.6" font-family="Helvetica,sans-Serif" font-size="8.00" fill="#999999">10 (⇑4)</text>
</g>
<!-- 67221960 -->
<g id="node12" class="node">
<title>67221960</title>
<path fill="none" stroke="#000000" d="M223.6771,-306.7C223.6771,-306.7 365.9168,-306.7 365.9168,-306.7 371.9168,-306.7 377.9168,-312.7 377.9168,-318.7 377.9168,-318.7 377.9168,-341.9 377.9168,-341.9 377.9168,-347.9 371.9168,-353.9 365.9168,-353.9 365.9168,-353.9 223.6771,-353.9 223.6771,-353.9 217.6771,-353.9 211.6771,-347.9 211.6771,-341.9 211.6771,-341.9 211.6771,-318.7 211.6771,-318.7 211.6771,-312.7 217.6771,-306.7 223.6771,-306.7"/>
<text text-anchor="middle" x="294.7969" y="-338.2" font-family="Helvetica,sans-Serif" font-size="13.00" fill="#000000">setTatami_rowscan(3,5,7)</text>
<polyline fill="none" stroke="#000000" points="211.6771,-330.3 377.9168,-330.3 "/>
<text text-anchor="middle" x="294.7969" y="-314.6" font-family="Helvetica,sans-Serif" font-size="13.00" fill="#000000">ret: None</text>
</g>
<!-- 67221200&#45;&gt;67221960 -->
<g id="edge14" class="edge">
<title>67221200&#45;&gt;67221960</title>
<path fill="none" stroke="#161616" d="M294.7969,-400.4303C294.7969,-389.4325 294.7969,-376.1547 294.7969,-364.1244"/>
<polygon fill="#161616" stroke="#161616" points="298.297,-363.9621 294.7969,-353.9621 291.297,-363.9622 298.297,-363.9621"/>
<text text-anchor="middle" x="308.5773" y="-374.8" font-family="Helvetica,sans-Serif" font-size="8.00" fill="#999999">11 (⇑3)</text>
</g>
<!-- 67222720 -->
<g id="node13" class="node">
<title>67222720</title>
<path fill="none" stroke="#000000" d="M12,-212.9C12,-212.9 577.5938,-212.9 577.5938,-212.9 583.5938,-212.9 589.5938,-218.9 589.5938,-224.9 589.5938,-224.9 589.5938,-248.1 589.5938,-248.1 589.5938,-254.1 583.5938,-260.1 577.5938,-260.1 577.5938,-260.1 12,-260.1 12,-260.1 6,-260.1 0,-254.1 0,-248.1 0,-248.1 0,-224.9 0,-224.9 0,-218.9 6,-212.9 12,-212.9"/>
<text text-anchor="middle" x="294.7969" y="-244.4" font-family="Helvetica,sans-Serif" font-size="13.00" fill="#000000">setTatami_rowscan(4,1,7)</text>
<polyline fill="none" stroke="#000000" points="0,-236.5 589.5938,-236.5 "/>
<text text-anchor="middle" x="294.7969" y="-220.8" font-family="Helvetica,sans-Serif" font-size="13.00" fill="#000000">ret: [[&#45;1. &#45;1. &#45;1. &#45;1. &#45;1. &#45;1.] [&#45;1. 1. 1. 2. 2. &#45;1.] [&#45;1. 3. 4. 4. 5. &#45;1.] [&#45;1. 3. 6. 6. 5. &#45;1.] [&#45;1. &#45;1. &#45;1. &#45;1. &#45;1. &#45;1.]]</text>
</g>
<!-- 67221960&#45;&gt;67222720 -->
<g id="edge15" class="edge">
<title>67221960&#45;&gt;67222720</title>
<path fill="none" stroke="#181818" d="M294.7969,-306.6303C294.7969,-295.6325 294.7969,-282.3547 294.7969,-270.3244"/>
<polygon fill="#181818" stroke="#181818" points="298.297,-270.1621 294.7969,-260.1621 291.297,-270.1622 298.297,-270.1621"/>
<text text-anchor="middle" x="308.5773" y="-281" font-family="Helvetica,sans-Serif" font-size="8.00" fill="#999999">12 (⇑2)</text>
</g>
<!-- 62402304 -->
<g id="node16" class="node">
<title>62402304</title>
<path fill="none" stroke="#000000" d="M651.6771,-963.3C651.6771,-963.3 793.9168,-963.3 793.9168,-963.3 799.9168,-963.3 805.9168,-969.3 805.9168,-975.3 805.9168,-975.3 805.9168,-998.5 805.9168,-998.5 805.9168,-1004.5 799.9168,-1010.5 793.9168,-1010.5 793.9168,-1010.5 651.6771,-1010.5 651.6771,-1010.5 645.6771,-1010.5 639.6771,-1004.5 639.6771,-998.5 639.6771,-998.5 639.6771,-975.3 639.6771,-975.3 639.6771,-969.3 645.6771,-963.3 651.6771,-963.3"/>
<text text-anchor="middle" x="722.7969" y="-994.8" font-family="Helvetica,sans-Serif" font-size="13.00" fill="#000000">setTatami_rowscan(1,5,4)</text>
<polyline fill="none" stroke="#000000" points="639.6771,-986.9 805.9168,-986.9 "/>
<text text-anchor="middle" x="722.7969" y="-971.2" font-family="Helvetica,sans-Serif" font-size="13.00" fill="#000000">ret: None</text>
</g>
<!-- 62397232&#45;&gt;62402304 -->
<g id="edge16" class="edge">
<title>62397232&#45;&gt;62402304</title>
<path fill="none" stroke="#1e1e1e" d="M722.7969,-1057.0303C722.7969,-1046.0325 722.7969,-1032.7547 722.7969,-1020.7244"/>
<polygon fill="#1e1e1e" stroke="#1e1e1e" points="726.297,-1020.5621 722.7969,-1010.5621 719.297,-1020.5622 726.297,-1020.5621"/>
<text text-anchor="middle" x="738.8009" y="-1031.4" font-family="Helvetica,sans-Serif" font-size="8.00" fill="#999999">15 (⇑28)</text>
</g>
<!-- 62405888 -->
<g id="node17" class="node">
<title>62405888</title>
<path fill="none" stroke="#000000" d="M651.6771,-869.5C651.6771,-869.5 793.9168,-869.5 793.9168,-869.5 799.9168,-869.5 805.9168,-875.5 805.9168,-881.5 805.9168,-881.5 805.9168,-904.7 805.9168,-904.7 805.9168,-910.7 799.9168,-916.7 793.9168,-916.7 793.9168,-916.7 651.6771,-916.7 651.6771,-916.7 645.6771,-916.7 639.6771,-910.7 639.6771,-904.7 639.6771,-904.7 639.6771,-881.5 639.6771,-881.5 639.6771,-875.5 645.6771,-869.5 651.6771,-869.5"/>
<text text-anchor="middle" x="722.7969" y="-901" font-family="Helvetica,sans-Serif" font-size="13.00" fill="#000000">setTatami_rowscan(2,1,4)</text>
<polyline fill="none" stroke="#000000" points="639.6771,-893.1 805.9168,-893.1 "/>
<text text-anchor="middle" x="722.7969" y="-877.4" font-family="Helvetica,sans-Serif" font-size="13.00" fill="#000000">ret: None</text>
</g>
<!-- 62402304&#45;&gt;62405888 -->
<g id="edge17" class="edge">
<title>62402304&#45;&gt;62405888</title>
<path fill="none" stroke="#202020" d="M722.7969,-963.2303C722.7969,-952.2325 722.7969,-938.9547 722.7969,-926.9244"/>
<polygon fill="#202020" stroke="#202020" points="726.297,-926.7621 722.7969,-916.7621 719.297,-926.7622 726.297,-926.7621"/>
<text text-anchor="middle" x="738.8009" y="-937.6" font-family="Helvetica,sans-Serif" font-size="8.00" fill="#999999">16 (⇑27)</text>
</g>
<!-- 67224392 -->
<g id="node18" class="node">
<title>67224392</title>
<path fill="none" stroke="#000000" d="M591.6771,-775.7C591.6771,-775.7 733.9168,-775.7 733.9168,-775.7 739.9168,-775.7 745.9168,-781.7 745.9168,-787.7 745.9168,-787.7 745.9168,-810.9 745.9168,-810.9 745.9168,-816.9 739.9168,-822.9 733.9168,-822.9 733.9168,-822.9 591.6771,-822.9 591.6771,-822.9 585.6771,-822.9 579.6771,-816.9 579.6771,-810.9 579.6771,-810.9 579.6771,-787.7 579.6771,-787.7 579.6771,-781.7 585.6771,-775.7 591.6771,-775.7"/>
<text text-anchor="middle" x="662.7969" y="-807.2" font-family="Helvetica,sans-Serif" font-size="13.00" fill="#000000">setTatami_rowscan(2,3,5)</text>
<polyline fill="none" stroke="#000000" points="579.6771,-799.3 745.9168,-799.3 "/>
<text text-anchor="middle" x="662.7969" y="-783.6" font-family="Helvetica,sans-Serif" font-size="13.00" fill="#000000">ret: None</text>
</g>
<!-- 62405888&#45;&gt;67224392 -->
<g id="edge18" class="edge">
<title>62405888&#45;&gt;67224392</title>
<path fill="none" stroke="#222222" d="M707.6564,-869.4303C700.3373,-857.9881 691.4396,-844.078 683.5043,-831.6725"/>
<polygon fill="#222222" stroke="#222222" points="686.2695,-829.5002 677.9326,-822.9621 680.3727,-833.2722 686.2695,-829.5002"/>
<text text-anchor="middle" x="710.8009" y="-843.8" font-family="Helvetica,sans-Serif" font-size="8.00" fill="#999999">17 (⇑17)</text>
</g>
<!-- 67244952 -->
<g id="node23" class="node">
<title>67244952</title>
<path fill="none" stroke="#000000" d="M775.6771,-775.7C775.6771,-775.7 917.9168,-775.7 917.9168,-775.7 923.9168,-775.7 929.9168,-781.7 929.9168,-787.7 929.9168,-787.7 929.9168,-810.9 929.9168,-810.9 929.9168,-816.9 923.9168,-822.9 917.9168,-822.9 917.9168,-822.9 775.6771,-822.9 775.6771,-822.9 769.6771,-822.9 763.6771,-816.9 763.6771,-810.9 763.6771,-810.9 763.6771,-787.7 763.6771,-787.7 763.6771,-781.7 769.6771,-775.7 775.6771,-775.7"/>
<text text-anchor="middle" x="846.7969" y="-807.2" font-family="Helvetica,sans-Serif" font-size="13.00" fill="#000000">setTatami_rowscan(2,2,5)</text>
<polyline fill="none" stroke="#000000" points="763.6771,-799.3 929.9168,-799.3 "/>
<text text-anchor="middle" x="846.7969" y="-783.6" font-family="Helvetica,sans-Serif" font-size="13.00" fill="#000000">ret: None</text>
</g>
<!-- 62405888&#45;&gt;67244952 -->
<g id="edge19" class="edge">
<title>62405888&#45;&gt;67244952</title>
<path fill="none" stroke="#2c2c2c" d="M754.0873,-869.4303C770.2414,-857.2105 790.1166,-842.1759 807.3161,-829.1653"/>
<polygon fill="#2c2c2c" stroke="#2c2c2c" points="809.6527,-831.7864 815.5165,-822.9621 805.4297,-826.2037 809.6527,-831.7864"/>
<text text-anchor="middle" x="804.8009" y="-843.8" font-family="Helvetica,sans-Serif" font-size="8.00" fill="#999999">22 (⇑26)</text>
</g>
<!-- 67225152 -->
<g id="node19" class="node">
<title>67225152</title>
<path fill="none" stroke="#000000" d="M591.6771,-681.9C591.6771,-681.9 733.9168,-681.9 733.9168,-681.9 739.9168,-681.9 745.9168,-687.9 745.9168,-693.9 745.9168,-693.9 745.9168,-717.1 745.9168,-717.1 745.9168,-723.1 739.9168,-729.1 733.9168,-729.1 733.9168,-729.1 591.6771,-729.1 591.6771,-729.1 585.6771,-729.1 579.6771,-723.1 579.6771,-717.1 579.6771,-717.1 579.6771,-693.9 579.6771,-693.9 579.6771,-687.9 585.6771,-681.9 591.6771,-681.9"/>
<text text-anchor="middle" x="662.7969" y="-713.4" font-family="Helvetica,sans-Serif" font-size="13.00" fill="#000000">setTatami_rowscan(2,4,5)</text>
<polyline fill="none" stroke="#000000" points="579.6771,-705.5 745.9168,-705.5 "/>
<text text-anchor="middle" x="662.7969" y="-689.8" font-family="Helvetica,sans-Serif" font-size="13.00" fill="#000000">ret: None</text>
</g>
<!-- 67224392&#45;&gt;67225152 -->
<g id="edge20" class="edge">
<title>67224392&#45;&gt;67225152</title>
<path fill="none" stroke="#242424" d="M662.7969,-775.6303C662.7969,-764.6325 662.7969,-751.3547 662.7969,-739.3244"/>
<polygon fill="#242424" stroke="#242424" points="666.297,-739.1621 662.7969,-729.1621 659.297,-739.1622 666.297,-739.1621"/>
<text text-anchor="middle" x="678.8009" y="-750" font-family="Helvetica,sans-Serif" font-size="8.00" fill="#999999">18 (⇑16)</text>
</g>
<!-- 67225912 -->
<g id="node20" class="node">
<title>67225912</title>
<path fill="none" stroke="#000000" d="M591.6771,-588.1C591.6771,-588.1 733.9168,-588.1 733.9168,-588.1 739.9168,-588.1 745.9168,-594.1 745.9168,-600.1 745.9168,-600.1 745.9168,-623.3 745.9168,-623.3 745.9168,-629.3 739.9168,-635.3 733.9168,-635.3 733.9168,-635.3 591.6771,-635.3 591.6771,-635.3 585.6771,-635.3 579.6771,-629.3 579.6771,-623.3 579.6771,-623.3 579.6771,-600.1 579.6771,-600.1 579.6771,-594.1 585.6771,-588.1 591.6771,-588.1"/>
<text text-anchor="middle" x="662.7969" y="-619.6" font-family="Helvetica,sans-Serif" font-size="13.00" fill="#000000">setTatami_rowscan(2,5,5)</text>
<polyline fill="none" stroke="#000000" points="579.6771,-611.7 745.9168,-611.7 "/>
<text text-anchor="middle" x="662.7969" y="-596" font-family="Helvetica,sans-Serif" font-size="13.00" fill="#000000">ret: None</text>
</g>
<!-- 67225152&#45;&gt;67225912 -->
<g id="edge21" class="edge">
<title>67225152&#45;&gt;67225912</title>
<path fill="none" stroke="#262626" d="M662.7969,-681.8303C662.7969,-670.8325 662.7969,-657.5547 662.7969,-645.5244"/>
<polygon fill="#262626" stroke="#262626" points="666.297,-645.3621 662.7969,-635.3621 659.297,-645.3622 666.297,-645.3621"/>
<text text-anchor="middle" x="678.8009" y="-656.2" font-family="Helvetica,sans-Serif" font-size="8.00" fill="#999999">19 (⇑15)</text>
</g>
<!-- 67240048 -->
<g id="node21" class="node">
<title>67240048</title>
<path fill="none" stroke="#000000" d="M591.6771,-494.3C591.6771,-494.3 733.9168,-494.3 733.9168,-494.3 739.9168,-494.3 745.9168,-500.3 745.9168,-506.3 745.9168,-506.3 745.9168,-529.5 745.9168,-529.5 745.9168,-535.5 739.9168,-541.5 733.9168,-541.5 733.9168,-541.5 591.6771,-541.5 591.6771,-541.5 585.6771,-541.5 579.6771,-535.5 579.6771,-529.5 579.6771,-529.5 579.6771,-506.3 579.6771,-506.3 579.6771,-500.3 585.6771,-494.3 591.6771,-494.3"/>
<text text-anchor="middle" x="662.7969" y="-525.8" font-family="Helvetica,sans-Serif" font-size="13.00" fill="#000000">setTatami_rowscan(3,1,5)</text>
<polyline fill="none" stroke="#000000" points="579.6771,-517.9 745.9168,-517.9 "/>
<text text-anchor="middle" x="662.7969" y="-502.2" font-family="Helvetica,sans-Serif" font-size="13.00" fill="#000000">ret: None</text>
</g>
<!-- 67225912&#45;&gt;67240048 -->
<g id="edge22" class="edge">
<title>67225912&#45;&gt;67240048</title>
<path fill="none" stroke="#282828" d="M662.7969,-588.0303C662.7969,-577.0325 662.7969,-563.7547 662.7969,-551.7244"/>
<polygon fill="#282828" stroke="#282828" points="666.297,-551.5621 662.7969,-541.5621 659.297,-551.5622 666.297,-551.5621"/>
<text text-anchor="middle" x="678.8009" y="-562.4" font-family="Helvetica,sans-Serif" font-size="8.00" fill="#999999">20 (⇑14)</text>
</g>
<!-- 67240808 -->
<g id="node22" class="node">
<title>67240808</title>
<path fill="none" stroke="#000000" d="M591.6771,-400.5C591.6771,-400.5 733.9168,-400.5 733.9168,-400.5 739.9168,-400.5 745.9168,-406.5 745.9168,-412.5 745.9168,-412.5 745.9168,-435.7 745.9168,-435.7 745.9168,-441.7 739.9168,-447.7 733.9168,-447.7 733.9168,-447.7 591.6771,-447.7 591.6771,-447.7 585.6771,-447.7 579.6771,-441.7 579.6771,-435.7 579.6771,-435.7 579.6771,-412.5 579.6771,-412.5 579.6771,-406.5 585.6771,-400.5 591.6771,-400.5"/>
<text text-anchor="middle" x="662.7969" y="-432" font-family="Helvetica,sans-Serif" font-size="13.00" fill="#000000">setTatami_rowscan(3,3,6)</text>
<polyline fill="none" stroke="#000000" points="579.6771,-424.1 745.9168,-424.1 "/>
<text text-anchor="middle" x="662.7969" y="-408.4" font-family="Helvetica,sans-Serif" font-size="13.00" fill="#000000">ret: None</text>
</g>
<!-- 67240048&#45;&gt;67240808 -->
<g id="edge23" class="edge">
<title>67240048&#45;&gt;67240808</title>
<path fill="none" stroke="#2a2a2a" d="M662.7969,-494.2303C662.7969,-483.2325 662.7969,-469.9547 662.7969,-457.9244"/>
<polygon fill="#2a2a2a" stroke="#2a2a2a" points="666.297,-457.7621 662.7969,-447.7621 659.297,-457.7622 666.297,-457.7621"/>
<text text-anchor="middle" x="678.8009" y="-468.6" font-family="Helvetica,sans-Serif" font-size="8.00" fill="#999999">21 (⇑13)</text>
</g>
<!-- 67245824 -->
<g id="node24" class="node">
<title>67245824</title>
<path fill="none" stroke="#000000" d="M775.6771,-681.9C775.6771,-681.9 917.9168,-681.9 917.9168,-681.9 923.9168,-681.9 929.9168,-687.9 929.9168,-693.9 929.9168,-693.9 929.9168,-717.1 929.9168,-717.1 929.9168,-723.1 923.9168,-729.1 917.9168,-729.1 917.9168,-729.1 775.6771,-729.1 775.6771,-729.1 769.6771,-729.1 763.6771,-723.1 763.6771,-717.1 763.6771,-717.1 763.6771,-693.9 763.6771,-693.9 763.6771,-687.9 769.6771,-681.9 775.6771,-681.9"/>
<text text-anchor="middle" x="846.7969" y="-713.4" font-family="Helvetica,sans-Serif" font-size="13.00" fill="#000000">setTatami_rowscan(2,3,6)</text>
<polyline fill="none" stroke="#000000" points="763.6771,-705.5 929.9168,-705.5 "/>
<text text-anchor="middle" x="846.7969" y="-689.8" font-family="Helvetica,sans-Serif" font-size="13.00" fill="#000000">ret: None</text>
</g>
<!-- 67244952&#45;&gt;67245824 -->
<g id="edge24" class="edge">
<title>67244952&#45;&gt;67245824</title>
<path fill="none" stroke="#2e2e2e" d="M846.7969,-775.6303C846.7969,-764.6325 846.7969,-751.3547 846.7969,-739.3244"/>
<polygon fill="#2e2e2e" stroke="#2e2e2e" points="850.297,-739.1621 846.7969,-729.1621 843.297,-739.1622 850.297,-739.1621"/>
<text text-anchor="middle" x="862.8009" y="-750" font-family="Helvetica,sans-Serif" font-size="8.00" fill="#999999">23 (⇑25)</text>
</g>
<!-- 67256032 -->
<g id="node25" class="node">
<title>67256032</title>
<path fill="none" stroke="#000000" d="M775.6771,-588.1C775.6771,-588.1 917.9168,-588.1 917.9168,-588.1 923.9168,-588.1 929.9168,-594.1 929.9168,-600.1 929.9168,-600.1 929.9168,-623.3 929.9168,-623.3 929.9168,-629.3 923.9168,-635.3 917.9168,-635.3 917.9168,-635.3 775.6771,-635.3 775.6771,-635.3 769.6771,-635.3 763.6771,-629.3 763.6771,-623.3 763.6771,-623.3 763.6771,-600.1 763.6771,-600.1 763.6771,-594.1 769.6771,-588.1 775.6771,-588.1"/>
<text text-anchor="middle" x="846.7969" y="-619.6" font-family="Helvetica,sans-Serif" font-size="13.00" fill="#000000">setTatami_rowscan(2,4,6)</text>
<polyline fill="none" stroke="#000000" points="763.6771,-611.7 929.9168,-611.7 "/>
<text text-anchor="middle" x="846.7969" y="-596" font-family="Helvetica,sans-Serif" font-size="13.00" fill="#000000">ret: None</text>
</g>
<!-- 67245824&#45;&gt;67256032 -->
<g id="edge25" class="edge">
<title>67245824&#45;&gt;67256032</title>
<path fill="none" stroke="#303030" d="M846.7969,-681.8303C846.7969,-670.8325 846.7969,-657.5547 846.7969,-645.5244"/>
<polygon fill="#303030" stroke="#303030" points="850.297,-645.3621 846.7969,-635.3621 843.297,-645.3622 850.297,-645.3621"/>
<text text-anchor="middle" x="862.8009" y="-656.2" font-family="Helvetica,sans-Serif" font-size="8.00" fill="#999999">24 (⇑24)</text>
</g>
<!-- 62409232 -->
<g id="node26" class="node">
<title>62409232</title>
<path fill="none" stroke="#000000" d="M775.6771,-494.3C775.6771,-494.3 917.9168,-494.3 917.9168,-494.3 923.9168,-494.3 929.9168,-500.3 929.9168,-506.3 929.9168,-506.3 929.9168,-529.5 929.9168,-529.5 929.9168,-535.5 923.9168,-541.5 917.9168,-541.5 917.9168,-541.5 775.6771,-541.5 775.6771,-541.5 769.6771,-541.5 763.6771,-535.5 763.6771,-529.5 763.6771,-529.5 763.6771,-506.3 763.6771,-506.3 763.6771,-500.3 769.6771,-494.3 775.6771,-494.3"/>
<text text-anchor="middle" x="846.7969" y="-525.8" font-family="Helvetica,sans-Serif" font-size="13.00" fill="#000000">setTatami_rowscan(2,5,6)</text>
<polyline fill="none" stroke="#000000" points="763.6771,-517.9 929.9168,-517.9 "/>
<text text-anchor="middle" x="846.7969" y="-502.2" font-family="Helvetica,sans-Serif" font-size="13.00" fill="#000000">ret: None</text>
</g>
<!-- 67256032&#45;&gt;62409232 -->
<g id="edge26" class="edge">
<title>67256032&#45;&gt;62409232</title>
<path fill="none" stroke="#323232" d="M846.7969,-588.0303C846.7969,-577.0325 846.7969,-563.7547 846.7969,-551.7244"/>
<polygon fill="#323232" stroke="#323232" points="850.297,-551.5621 846.7969,-541.5621 843.297,-551.5622 850.297,-551.5621"/>
<text text-anchor="middle" x="862.8009" y="-562.4" font-family="Helvetica,sans-Serif" font-size="8.00" fill="#999999">25 (⇑23)</text>
</g>
<!-- 62409992 -->
<g id="node27" class="node">
<title>62409992</title>
<path fill="none" stroke="#000000" d="M775.6771,-400.5C775.6771,-400.5 917.9168,-400.5 917.9168,-400.5 923.9168,-400.5 929.9168,-406.5 929.9168,-412.5 929.9168,-412.5 929.9168,-435.7 929.9168,-435.7 929.9168,-441.7 923.9168,-447.7 917.9168,-447.7 917.9168,-447.7 775.6771,-447.7 775.6771,-447.7 769.6771,-447.7 763.6771,-441.7 763.6771,-435.7 763.6771,-435.7 763.6771,-412.5 763.6771,-412.5 763.6771,-406.5 769.6771,-400.5 775.6771,-400.5"/>
<text text-anchor="middle" x="846.7969" y="-432" font-family="Helvetica,sans-Serif" font-size="13.00" fill="#000000">setTatami_rowscan(3,1,6)</text>
<polyline fill="none" stroke="#000000" points="763.6771,-424.1 929.9168,-424.1 "/>
<text text-anchor="middle" x="846.7969" y="-408.4" font-family="Helvetica,sans-Serif" font-size="13.00" fill="#000000">ret: None</text>
</g>
<!-- 62409232&#45;&gt;62409992 -->
<g id="edge27" class="edge">
<title>62409232&#45;&gt;62409992</title>
<path fill="none" stroke="#343434" d="M846.7969,-494.2303C846.7969,-483.2325 846.7969,-469.9547 846.7969,-457.9244"/>
<polygon fill="#343434" stroke="#343434" points="850.297,-457.7621 846.7969,-447.7621 843.297,-457.7622 850.297,-457.7621"/>
<text text-anchor="middle" x="862.8009" y="-468.6" font-family="Helvetica,sans-Serif" font-size="8.00" fill="#999999">26 (⇑22)</text>
</g>
<!-- 62410752 -->
<g id="node28" class="node">
<title>62410752</title>
<path fill="none" stroke="#000000" d="M742.6771,-306.7C742.6771,-306.7 884.9168,-306.7 884.9168,-306.7 890.9168,-306.7 896.9168,-312.7 896.9168,-318.7 896.9168,-318.7 896.9168,-341.9 896.9168,-341.9 896.9168,-347.9 890.9168,-353.9 884.9168,-353.9 884.9168,-353.9 742.6771,-353.9 742.6771,-353.9 736.6771,-353.9 730.6771,-347.9 730.6771,-341.9 730.6771,-341.9 730.6771,-318.7 730.6771,-318.7 730.6771,-312.7 736.6771,-306.7 742.6771,-306.7"/>
<text text-anchor="middle" x="813.7969" y="-338.2" font-family="Helvetica,sans-Serif" font-size="13.00" fill="#000000">setTatami_rowscan(3,2,6)</text>
<polyline fill="none" stroke="#000000" points="730.6771,-330.3 896.9168,-330.3 "/>
<text text-anchor="middle" x="813.7969" y="-314.6" font-family="Helvetica,sans-Serif" font-size="13.00" fill="#000000">ret: None</text>
</g>
<!-- 62409992&#45;&gt;62410752 -->
<g id="edge28" class="edge">
<title>62409992&#45;&gt;62410752</title>
<path fill="none" stroke="#363636" d="M838.4696,-400.4303C834.5223,-389.2103 829.7401,-375.6173 825.4408,-363.3969"/>
<polygon fill="#363636" stroke="#363636" points="828.742,-362.2338 822.1215,-353.9621 822.1387,-364.557 828.742,-362.2338"/>
<text text-anchor="middle" x="847.8009" y="-374.8" font-family="Helvetica,sans-Serif" font-size="8.00" fill="#999999">27 (⇑21)</text>
</g>
<!-- 62411512 -->
<g id="node29" class="node">
<title>62411512</title>
<path fill="none" stroke="#000000" d="M680.6771,-212.9C680.6771,-212.9 822.9168,-212.9 822.9168,-212.9 828.9168,-212.9 834.9168,-218.9 834.9168,-224.9 834.9168,-224.9 834.9168,-248.1 834.9168,-248.1 834.9168,-254.1 828.9168,-260.1 822.9168,-260.1 822.9168,-260.1 680.6771,-260.1 680.6771,-260.1 674.6771,-260.1 668.6771,-254.1 668.6771,-248.1 668.6771,-248.1 668.6771,-224.9 668.6771,-224.9 668.6771,-218.9 674.6771,-212.9 680.6771,-212.9"/>
<text text-anchor="middle" x="751.7969" y="-244.4" font-family="Helvetica,sans-Serif" font-size="13.00" fill="#000000">setTatami_rowscan(3,3,6)</text>
<polyline fill="none" stroke="#000000" points="668.6771,-236.5 834.9168,-236.5 "/>
<text text-anchor="middle" x="751.7969" y="-220.8" font-family="Helvetica,sans-Serif" font-size="13.00" fill="#000000">ret: None</text>
</g>
<!-- 62410752&#45;&gt;62411512 -->
<g id="edge29" class="edge">
<title>62410752&#45;&gt;62411512</title>
<path fill="none" stroke="#383838" d="M798.1517,-306.6303C790.5152,-295.0771 781.2156,-281.0077 772.956,-268.5116"/>
<polygon fill="#383838" stroke="#383838" points="775.8711,-266.5745 767.4371,-260.1621 770.0315,-270.4344 775.8711,-266.5745"/>
<text text-anchor="middle" x="800.8009" y="-281" font-family="Helvetica,sans-Serif" font-size="8.00" fill="#999999">28 (⇑20)</text>
</g>
<!-- 62412272 -->
<g id="node30" class="node">
<title>62412272</title>
<path fill="none" stroke="#000000" d="M680.6771,-119.1C680.6771,-119.1 822.9168,-119.1 822.9168,-119.1 828.9168,-119.1 834.9168,-125.1 834.9168,-131.1 834.9168,-131.1 834.9168,-154.3 834.9168,-154.3 834.9168,-160.3 828.9168,-166.3 822.9168,-166.3 822.9168,-166.3 680.6771,-166.3 680.6771,-166.3 674.6771,-166.3 668.6771,-160.3 668.6771,-154.3 668.6771,-154.3 668.6771,-131.1 668.6771,-131.1 668.6771,-125.1 674.6771,-119.1 680.6771,-119.1"/>
<text text-anchor="middle" x="751.7969" y="-150.6" font-family="Helvetica,sans-Serif" font-size="13.00" fill="#000000">setTatami_rowscan(3,5,7)</text>
<polyline fill="none" stroke="#000000" points="668.6771,-142.7 834.9168,-142.7 "/>
<text text-anchor="middle" x="751.7969" y="-127" font-family="Helvetica,sans-Serif" font-size="13.00" fill="#000000">ret: None</text>
</g>
<!-- 62411512&#45;&gt;62412272 -->
<g id="edge30" class="edge">
<title>62411512&#45;&gt;62412272</title>
<path fill="none" stroke="#3a3a3a" d="M751.7969,-212.8303C751.7969,-201.8325 751.7969,-188.5547 751.7969,-176.5244"/>
<polygon fill="#3a3a3a" stroke="#3a3a3a" points="755.297,-176.3621 751.7969,-166.3621 748.297,-176.3622 755.297,-176.3621"/>
<text text-anchor="middle" x="767.8009" y="-187.2" font-family="Helvetica,sans-Serif" font-size="8.00" fill="#999999">29 (⇑19)</text>
</g>
<!-- 62418752 -->
<g id="node31" class="node">
<title>62418752</title>
<path fill="none" stroke="#000000" d="M469,-25.3C469,-25.3 1034.5938,-25.3 1034.5938,-25.3 1040.5938,-25.3 1046.5938,-31.3 1046.5938,-37.3 1046.5938,-37.3 1046.5938,-60.5 1046.5938,-60.5 1046.5938,-66.5 1040.5938,-72.5 1034.5938,-72.5 1034.5938,-72.5 469,-72.5 469,-72.5 463,-72.5 457,-66.5 457,-60.5 457,-60.5 457,-37.3 457,-37.3 457,-31.3 463,-25.3 469,-25.3"/>
<text text-anchor="middle" x="751.7969" y="-56.8" font-family="Helvetica,sans-Serif" font-size="13.00" fill="#000000">setTatami_rowscan(4,1,7)</text>
<polyline fill="none" stroke="#000000" points="457,-48.9 1046.5938,-48.9 "/>
<text text-anchor="middle" x="751.7969" y="-33.2" font-family="Helvetica,sans-Serif" font-size="13.00" fill="#000000">ret: [[&#45;1. &#45;1. &#45;1. &#45;1. &#45;1. &#45;1.] [&#45;1. 1. 1. 2. 3. &#45;1.] [&#45;1. 4. 5. 2. 3. &#45;1.] [&#45;1. 4. 5. 6. 6. &#45;1.] [&#45;1. &#45;1. &#45;1. &#45;1. &#45;1. &#45;1.]]</text>
</g>
<!-- 62412272&#45;&gt;62418752 -->
<g id="edge31" class="edge">
<title>62412272&#45;&gt;62418752</title>
<path fill="none" stroke="#3c3c3c" d="M751.7969,-119.0303C751.7969,-108.0325 751.7969,-94.7547 751.7969,-82.7244"/>
<polygon fill="#3c3c3c" stroke="#3c3c3c" points="755.297,-82.5621 751.7969,-72.5621 748.297,-82.5622 755.297,-82.5621"/>
<text text-anchor="middle" x="767.8009" y="-93.4" font-family="Helvetica,sans-Serif" font-size="8.00" fill="#999999">30 (⇑18)</text>
</g>
<!-- 62419672 -->
<g id="node33" class="node">
<title>62419672</title>
<path fill="none" stroke="#000000" d="M1088.6771,-1057.1C1088.6771,-1057.1 1230.9168,-1057.1 1230.9168,-1057.1 1236.9168,-1057.1 1242.9168,-1063.1 1242.9168,-1069.1 1242.9168,-1069.1 1242.9168,-1092.3 1242.9168,-1092.3 1242.9168,-1098.3 1236.9168,-1104.3 1230.9168,-1104.3 1230.9168,-1104.3 1088.6771,-1104.3 1088.6771,-1104.3 1082.6771,-1104.3 1076.6771,-1098.3 1076.6771,-1092.3 1076.6771,-1092.3 1076.6771,-1069.1 1076.6771,-1069.1 1076.6771,-1063.1 1082.6771,-1057.1 1088.6771,-1057.1"/>
<text text-anchor="middle" x="1159.7969" y="-1088.6" font-family="Helvetica,sans-Serif" font-size="13.00" fill="#000000">setTatami_rowscan(1,4,3)</text>
<polyline fill="none" stroke="#000000" points="1076.6771,-1080.7 1242.9168,-1080.7 "/>
<text text-anchor="middle" x="1159.7969" y="-1065" font-family="Helvetica,sans-Serif" font-size="13.00" fill="#000000">ret: None</text>
</g>
<!-- 67223936&#45;&gt;62419672 -->
<g id="edge32" class="edge">
<title>67223936&#45;&gt;62419672</title>
<path fill="none" stroke="#404040" d="M1159.7969,-1150.8303C1159.7969,-1139.8325 1159.7969,-1126.5547 1159.7969,-1114.5244"/>
<polygon fill="#404040" stroke="#404040" points="1163.297,-1114.3621 1159.7969,-1104.3621 1156.297,-1114.3622 1163.297,-1114.3621"/>
<text text-anchor="middle" x="1175.8009" y="-1125.2" font-family="Helvetica,sans-Serif" font-size="8.00" fill="#999999">32 (⇑44)</text>
</g>
<!-- 68107160 -->
<g id="node47" class="node">
<title>68107160</title>
<path fill="none" stroke="#000000" d="M1327.6771,-1057.1C1327.6771,-1057.1 1469.9168,-1057.1 1469.9168,-1057.1 1475.9168,-1057.1 1481.9168,-1063.1 1481.9168,-1069.1 1481.9168,-1069.1 1481.9168,-1092.3 1481.9168,-1092.3 1481.9168,-1098.3 1475.9168,-1104.3 1469.9168,-1104.3 1469.9168,-1104.3 1327.6771,-1104.3 1327.6771,-1104.3 1321.6771,-1104.3 1315.6771,-1098.3 1315.6771,-1092.3 1315.6771,-1092.3 1315.6771,-1069.1 1315.6771,-1069.1 1315.6771,-1063.1 1321.6771,-1057.1 1327.6771,-1057.1"/>
<text text-anchor="middle" x="1398.7969" y="-1088.6" font-family="Helvetica,sans-Serif" font-size="13.00" fill="#000000">setTatami_rowscan(1,3,3)</text>
<polyline fill="none" stroke="#000000" points="1315.6771,-1080.7 1481.9168,-1080.7 "/>
<text text-anchor="middle" x="1398.7969" y="-1065" font-family="Helvetica,sans-Serif" font-size="13.00" fill="#000000">ret: None</text>
</g>
<!-- 67223936&#45;&gt;68107160 -->
<g id="edge33" class="edge">
<title>67223936&#45;&gt;68107160</title>
<path fill="none" stroke="#5c5c5c" d="M1220.1067,-1150.8303C1253.2237,-1137.8329 1294.4547,-1121.651 1328.9637,-1108.1073"/>
<polygon fill="#5c5c5c" stroke="#5c5c5c" points="1330.4764,-1111.2736 1338.5064,-1104.3621 1327.9189,-1104.7575 1330.4764,-1111.2736"/>
<text text-anchor="middle" x="1302.8009" y="-1125.2" font-family="Helvetica,sans-Serif" font-size="8.00" fill="#999999">46 (⇑68)</text>
</g>
<!-- 67265576 -->
<g id="node34" class="node">
<title>67265576</title>
<path fill="none" stroke="#000000" d="M1088.6771,-963.3C1088.6771,-963.3 1230.9168,-963.3 1230.9168,-963.3 1236.9168,-963.3 1242.9168,-969.3 1242.9168,-975.3 1242.9168,-975.3 1242.9168,-998.5 1242.9168,-998.5 1242.9168,-1004.5 1236.9168,-1010.5 1230.9168,-1010.5 1230.9168,-1010.5 1088.6771,-1010.5 1088.6771,-1010.5 1082.6771,-1010.5 1076.6771,-1004.5 1076.6771,-998.5 1076.6771,-998.5 1076.6771,-975.3 1076.6771,-975.3 1076.6771,-969.3 1082.6771,-963.3 1088.6771,-963.3"/>
<text text-anchor="middle" x="1159.7969" y="-994.8" font-family="Helvetica,sans-Serif" font-size="13.00" fill="#000000">setTatami_rowscan(1,5,4)</text>
<polyline fill="none" stroke="#000000" points="1076.6771,-986.9 1242.9168,-986.9 "/>
<text text-anchor="middle" x="1159.7969" y="-971.2" font-family="Helvetica,sans-Serif" font-size="13.00" fill="#000000">ret: None</text>
</g>
<!-- 62419672&#45;&gt;67265576 -->
<g id="edge34" class="edge">
<title>62419672&#45;&gt;67265576</title>
<path fill="none" stroke="#424242" d="M1159.7969,-1057.0303C1159.7969,-1046.0325 1159.7969,-1032.7547 1159.7969,-1020.7244"/>
<polygon fill="#424242" stroke="#424242" points="1163.297,-1020.5621 1159.7969,-1010.5621 1156.297,-1020.5622 1163.297,-1020.5621"/>
<text text-anchor="middle" x="1175.8009" y="-1031.4" font-family="Helvetica,sans-Serif" font-size="8.00" fill="#999999">33 (⇑43)</text>
</g>
<!-- 67266336 -->
<g id="node35" class="node">
<title>67266336</title>
<path fill="none" stroke="#000000" d="M1088.6771,-869.5C1088.6771,-869.5 1230.9168,-869.5 1230.9168,-869.5 1236.9168,-869.5 1242.9168,-875.5 1242.9168,-881.5 1242.9168,-881.5 1242.9168,-904.7 1242.9168,-904.7 1242.9168,-910.7 1236.9168,-916.7 1230.9168,-916.7 1230.9168,-916.7 1088.6771,-916.7 1088.6771,-916.7 1082.6771,-916.7 1076.6771,-910.7 1076.6771,-904.7 1076.6771,-904.7 1076.6771,-881.5 1076.6771,-881.5 1076.6771,-875.5 1082.6771,-869.5 1088.6771,-869.5"/>
<text text-anchor="middle" x="1159.7969" y="-901" font-family="Helvetica,sans-Serif" font-size="13.00" fill="#000000">setTatami_rowscan(2,1,4)</text>
<polyline fill="none" stroke="#000000" points="1076.6771,-893.1 1242.9168,-893.1 "/>
<text text-anchor="middle" x="1159.7969" y="-877.4" font-family="Helvetica,sans-Serif" font-size="13.00" fill="#000000">ret: None</text>
</g>
<!-- 67265576&#45;&gt;67266336 -->
<g id="edge35" class="edge">
<title>67265576&#45;&gt;67266336</title>
<path fill="none" stroke="#444444" d="M1159.7969,-963.2303C1159.7969,-952.2325 1159.7969,-938.9547 1159.7969,-926.9244"/>
<polygon fill="#444444" stroke="#444444" points="1163.297,-926.7621 1159.7969,-916.7621 1156.297,-926.7622 1163.297,-926.7621"/>
<text text-anchor="middle" x="1175.8009" y="-937.6" font-family="Helvetica,sans-Serif" font-size="8.00" fill="#999999">34 (⇑42)</text>
</g>
<!-- 67267096 -->
<g id="node36" class="node">
<title>67267096</title>
<path fill="none" stroke="#000000" d="M1088.6771,-775.7C1088.6771,-775.7 1230.9168,-775.7 1230.9168,-775.7 1236.9168,-775.7 1242.9168,-781.7 1242.9168,-787.7 1242.9168,-787.7 1242.9168,-810.9 1242.9168,-810.9 1242.9168,-816.9 1236.9168,-822.9 1230.9168,-822.9 1230.9168,-822.9 1088.6771,-822.9 1088.6771,-822.9 1082.6771,-822.9 1076.6771,-816.9 1076.6771,-810.9 1076.6771,-810.9 1076.6771,-787.7 1076.6771,-787.7 1076.6771,-781.7 1082.6771,-775.7 1088.6771,-775.7"/>
<text text-anchor="middle" x="1159.7969" y="-807.2" font-family="Helvetica,sans-Serif" font-size="13.00" fill="#000000">setTatami_rowscan(2,2,4)</text>
<polyline fill="none" stroke="#000000" points="1076.6771,-799.3 1242.9168,-799.3 "/>
<text text-anchor="middle" x="1159.7969" y="-783.6" font-family="Helvetica,sans-Serif" font-size="13.00" fill="#000000">ret: None</text>
</g>
<!-- 67266336&#45;&gt;67267096 -->
<g id="edge36" class="edge">
<title>67266336&#45;&gt;67267096</title>
<path fill="none" stroke="#464646" d="M1159.7969,-869.4303C1159.7969,-858.4325 1159.7969,-845.1547 1159.7969,-833.1244"/>
<polygon fill="#464646" stroke="#464646" points="1163.297,-832.9621 1159.7969,-822.9621 1156.297,-832.9622 1163.297,-832.9621"/>
<text text-anchor="middle" x="1175.8009" y="-843.8" font-family="Helvetica,sans-Serif" font-size="8.00" fill="#999999">35 (⇑41)</text>
</g>
<!-- 67267856 -->
<g id="node37" class="node">
<title>67267856</title>
<path fill="none" stroke="#000000" d="M959.6771,-681.9C959.6771,-681.9 1101.9168,-681.9 1101.9168,-681.9 1107.9168,-681.9 1113.9168,-687.9 1113.9168,-693.9 1113.9168,-693.9 1113.9168,-717.1 1113.9168,-717.1 1113.9168,-723.1 1107.9168,-729.1 1101.9168,-729.1 1101.9168,-729.1 959.6771,-729.1 959.6771,-729.1 953.6771,-729.1 947.6771,-723.1 947.6771,-717.1 947.6771,-717.1 947.6771,-693.9 947.6771,-693.9 947.6771,-687.9 953.6771,-681.9 959.6771,-681.9"/>
<text text-anchor="middle" x="1030.7969" y="-713.4" font-family="Helvetica,sans-Serif" font-size="13.00" fill="#000000">setTatami_rowscan(2,4,5)</text>
<polyline fill="none" stroke="#000000" points="947.6771,-705.5 1113.9168,-705.5 "/>
<text text-anchor="middle" x="1030.7969" y="-689.8" font-family="Helvetica,sans-Serif" font-size="13.00" fill="#000000">ret: None</text>
</g>
<!-- 67267096&#45;&gt;67267856 -->
<g id="edge37" class="edge">
<title>67267096&#45;&gt;67267856</title>
<path fill="none" stroke="#484848" d="M1127.2448,-775.6303C1110.4393,-763.4105 1089.7627,-748.3759 1071.8697,-735.3653"/>
<polygon fill="#484848" stroke="#484848" points="1073.4849,-732.2124 1063.3386,-729.1621 1069.3682,-737.8739 1073.4849,-732.2124"/>
<text text-anchor="middle" x="1115.8009" y="-750" font-family="Helvetica,sans-Serif" font-size="8.00" fill="#999999">36 (⇑36)</text>
</g>
<!-- 67264760 -->
<g id="node43" class="node">
<title>67264760</title>
<path fill="none" stroke="#000000" d="M1143.6771,-681.9C1143.6771,-681.9 1285.9168,-681.9 1285.9168,-681.9 1291.9168,-681.9 1297.9168,-687.9 1297.9168,-693.9 1297.9168,-693.9 1297.9168,-717.1 1297.9168,-717.1 1297.9168,-723.1 1291.9168,-729.1 1285.9168,-729.1 1285.9168,-729.1 1143.6771,-729.1 1143.6771,-729.1 1137.6771,-729.1 1131.6771,-723.1 1131.6771,-717.1 1131.6771,-717.1 1131.6771,-693.9 1131.6771,-693.9 1131.6771,-687.9 1137.6771,-681.9 1143.6771,-681.9"/>
<text text-anchor="middle" x="1214.7969" y="-713.4" font-family="Helvetica,sans-Serif" font-size="13.00" fill="#000000">setTatami_rowscan(2,3,5)</text>
<polyline fill="none" stroke="#000000" points="1131.6771,-705.5 1297.9168,-705.5 "/>
<text text-anchor="middle" x="1214.7969" y="-689.8" font-family="Helvetica,sans-Serif" font-size="13.00" fill="#000000">ret: None</text>
</g>
<!-- 67267096&#45;&gt;67264760 -->
<g id="edge38" class="edge">
<title>67267096&#45;&gt;67264760</title>
<path fill="none" stroke="#545454" d="M1173.6757,-775.6303C1180.3849,-764.1881 1188.5411,-750.278 1195.8151,-737.8725"/>
<polygon fill="#545454" stroke="#545454" points="1198.8836,-739.5589 1200.9225,-729.1621 1192.8451,-736.0182 1198.8836,-739.5589"/>
<text text-anchor="middle" x="1205.8009" y="-750" font-family="Helvetica,sans-Serif" font-size="8.00" fill="#999999">42 (⇑40)</text>
</g>
<!-- 67268616 -->
<g id="node38" class="node">
<title>67268616</title>
<path fill="none" stroke="#000000" d="M959.6771,-588.1C959.6771,-588.1 1101.9168,-588.1 1101.9168,-588.1 1107.9168,-588.1 1113.9168,-594.1 1113.9168,-600.1 1113.9168,-600.1 1113.9168,-623.3 1113.9168,-623.3 1113.9168,-629.3 1107.9168,-635.3 1101.9168,-635.3 1101.9168,-635.3 959.6771,-635.3 959.6771,-635.3 953.6771,-635.3 947.6771,-629.3 947.6771,-623.3 947.6771,-623.3 947.6771,-600.1 947.6771,-600.1 947.6771,-594.1 953.6771,-588.1 959.6771,-588.1"/>
<text text-anchor="middle" x="1030.7969" y="-619.6" font-family="Helvetica,sans-Serif" font-size="13.00" fill="#000000">setTatami_rowscan(2,5,5)</text>
<polyline fill="none" stroke="#000000" points="947.6771,-611.7 1113.9168,-611.7 "/>
<text text-anchor="middle" x="1030.7969" y="-596" font-family="Helvetica,sans-Serif" font-size="13.00" fill="#000000">ret: None</text>
</g>
<!-- 67267856&#45;&gt;67268616 -->
<g id="edge39" class="edge">
<title>67267856&#45;&gt;67268616</title>
<path fill="none" stroke="#4a4a4a" d="M1030.7969,-681.8303C1030.7969,-670.8325 1030.7969,-657.5547 1030.7969,-645.5244"/>
<polygon fill="#4a4a4a" stroke="#4a4a4a" points="1034.297,-645.3621 1030.7969,-635.3621 1027.297,-645.3622 1034.297,-645.3621"/>
<text text-anchor="middle" x="1046.8009" y="-656.2" font-family="Helvetica,sans-Serif" font-size="8.00" fill="#999999">37 (⇑35)</text>
</g>
<!-- 67269376 -->
<g id="node39" class="node">
<title>67269376</title>
<path fill="none" stroke="#000000" d="M959.6771,-494.3C959.6771,-494.3 1101.9168,-494.3 1101.9168,-494.3 1107.9168,-494.3 1113.9168,-500.3 1113.9168,-506.3 1113.9168,-506.3 1113.9168,-529.5 1113.9168,-529.5 1113.9168,-535.5 1107.9168,-541.5 1101.9168,-541.5 1101.9168,-541.5 959.6771,-541.5 959.6771,-541.5 953.6771,-541.5 947.6771,-535.5 947.6771,-529.5 947.6771,-529.5 947.6771,-506.3 947.6771,-506.3 947.6771,-500.3 953.6771,-494.3 959.6771,-494.3"/>
<text text-anchor="middle" x="1030.7969" y="-525.8" font-family="Helvetica,sans-Serif" font-size="13.00" fill="#000000">setTatami_rowscan(3,1,5)</text>
<polyline fill="none" stroke="#000000" points="947.6771,-517.9 1113.9168,-517.9 "/>
<text text-anchor="middle" x="1030.7969" y="-502.2" font-family="Helvetica,sans-Serif" font-size="13.00" fill="#000000">ret: None</text>
</g>
<!-- 67268616&#45;&gt;67269376 -->
<g id="edge40" class="edge">
<title>67268616&#45;&gt;67269376</title>
<path fill="none" stroke="#4c4c4c" d="M1030.7969,-588.0303C1030.7969,-577.0325 1030.7969,-563.7547 1030.7969,-551.7244"/>
<polygon fill="#4c4c4c" stroke="#4c4c4c" points="1034.297,-551.5621 1030.7969,-541.5621 1027.297,-551.5622 1034.297,-551.5621"/>
<text text-anchor="middle" x="1046.8009" y="-562.4" font-family="Helvetica,sans-Serif" font-size="8.00" fill="#999999">38 (⇑34)</text>
</g>
<!-- 67270136 -->
<g id="node40" class="node">
<title>67270136</title>
<path fill="none" stroke="#000000" d="M959.6771,-400.5C959.6771,-400.5 1101.9168,-400.5 1101.9168,-400.5 1107.9168,-400.5 1113.9168,-406.5 1113.9168,-412.5 1113.9168,-412.5 1113.9168,-435.7 1113.9168,-435.7 1113.9168,-441.7 1107.9168,-447.7 1101.9168,-447.7 1101.9168,-447.7 959.6771,-447.7 959.6771,-447.7 953.6771,-447.7 947.6771,-441.7 947.6771,-435.7 947.6771,-435.7 947.6771,-412.5 947.6771,-412.5 947.6771,-406.5 953.6771,-400.5 959.6771,-400.5"/>
<text text-anchor="middle" x="1030.7969" y="-432" font-family="Helvetica,sans-Serif" font-size="13.00" fill="#000000">setTatami_rowscan(3,3,6)</text>
<polyline fill="none" stroke="#000000" points="947.6771,-424.1 1113.9168,-424.1 "/>
<text text-anchor="middle" x="1030.7969" y="-408.4" font-family="Helvetica,sans-Serif" font-size="13.00" fill="#000000">ret: None</text>
</g>
<!-- 67269376&#45;&gt;67270136 -->
<g id="edge41" class="edge">
<title>67269376&#45;&gt;67270136</title>
<path fill="none" stroke="#4e4e4e" d="M1030.7969,-494.2303C1030.7969,-483.2325 1030.7969,-469.9547 1030.7969,-457.9244"/>
<polygon fill="#4e4e4e" stroke="#4e4e4e" points="1034.297,-457.7621 1030.7969,-447.7621 1027.297,-457.7622 1034.297,-457.7621"/>
<text text-anchor="middle" x="1046.8009" y="-468.6" font-family="Helvetica,sans-Serif" font-size="8.00" fill="#999999">39 (⇑33)</text>
</g>
<!-- 67273928 -->
<g id="node41" class="node">
<title>67273928</title>
<path fill="none" stroke="#000000" d="M1004.6771,-306.7C1004.6771,-306.7 1146.9168,-306.7 1146.9168,-306.7 1152.9168,-306.7 1158.9168,-312.7 1158.9168,-318.7 1158.9168,-318.7 1158.9168,-341.9 1158.9168,-341.9 1158.9168,-347.9 1152.9168,-353.9 1146.9168,-353.9 1146.9168,-353.9 1004.6771,-353.9 1004.6771,-353.9 998.6771,-353.9 992.6771,-347.9 992.6771,-341.9 992.6771,-341.9 992.6771,-318.7 992.6771,-318.7 992.6771,-312.7 998.6771,-306.7 1004.6771,-306.7"/>
<text text-anchor="middle" x="1075.7969" y="-338.2" font-family="Helvetica,sans-Serif" font-size="13.00" fill="#000000">setTatami_rowscan(3,5,7)</text>
<polyline fill="none" stroke="#000000" points="992.6771,-330.3 1158.9168,-330.3 "/>
<text text-anchor="middle" x="1075.7969" y="-314.6" font-family="Helvetica,sans-Serif" font-size="13.00" fill="#000000">ret: None</text>
</g>
<!-- 67270136&#45;&gt;67273928 -->
<g id="edge42" class="edge">
<title>67270136&#45;&gt;67273928</title>
<path fill="none" stroke="#505050" d="M1042.1523,-400.4303C1047.5883,-389.0992 1054.1854,-375.3479 1060.0928,-363.0343"/>
<polygon fill="#505050" stroke="#505050" points="1063.2753,-364.4922 1064.4451,-353.9621 1056.964,-361.4643 1063.2753,-364.4922"/>
<text text-anchor="middle" x="1070.8009" y="-374.8" font-family="Helvetica,sans-Serif" font-size="8.00" fill="#999999">40 (⇑32)</text>
</g>
<!-- 67283088 -->
<g id="node42" class="node">
<title>67283088</title>
<path fill="none" stroke="#000000" d="M865,-212.9C865,-212.9 1430.5938,-212.9 1430.5938,-212.9 1436.5938,-212.9 1442.5938,-218.9 1442.5938,-224.9 1442.5938,-224.9 1442.5938,-248.1 1442.5938,-248.1 1442.5938,-254.1 1436.5938,-260.1 1430.5938,-260.1 1430.5938,-260.1 865,-260.1 865,-260.1 859,-260.1 853,-254.1 853,-248.1 853,-248.1 853,-224.9 853,-224.9 853,-218.9 859,-212.9 865,-212.9"/>
<text text-anchor="middle" x="1147.7969" y="-244.4" font-family="Helvetica,sans-Serif" font-size="13.00" fill="#000000">setTatami_rowscan(4,1,7)</text>
<polyline fill="none" stroke="#000000" points="853,-236.5 1442.5938,-236.5 "/>
<text text-anchor="middle" x="1147.7969" y="-220.8" font-family="Helvetica,sans-Serif" font-size="13.00" fill="#000000">ret: [[&#45;1. &#45;1. &#45;1. &#45;1. &#45;1. &#45;1.] [&#45;1. 1. 2. 2. 3. &#45;1.] [&#45;1. 1. 4. 4. 3. &#45;1.] [&#45;1. 5. 5. 6. 6. &#45;1.] [&#45;1. &#45;1. &#45;1. &#45;1. &#45;1. &#45;1.]]</text>
</g>
<!-- 67273928&#45;&gt;67283088 -->
<g id="edge43" class="edge">
<title>67273928&#45;&gt;67283088</title>
<path fill="none" stroke="#525252" d="M1093.9655,-306.6303C1102.919,-294.966 1113.8411,-280.7369 1123.5014,-268.1516"/>
<polygon fill="#525252" stroke="#525252" points="1126.3215,-270.2258 1129.6341,-260.1621 1120.7687,-265.9635 1126.3215,-270.2258"/>
<text text-anchor="middle" x="1130.8009" y="-281" font-family="Helvetica,sans-Serif" font-size="8.00" fill="#999999">41 (⇑31)</text>
</g>
<!-- 67290104 -->
<g id="node44" class="node">
<title>67290104</title>
<path fill="none" stroke="#000000" d="M1143.6771,-588.1C1143.6771,-588.1 1285.9168,-588.1 1285.9168,-588.1 1291.9168,-588.1 1297.9168,-594.1 1297.9168,-600.1 1297.9168,-600.1 1297.9168,-623.3 1297.9168,-623.3 1297.9168,-629.3 1291.9168,-635.3 1285.9168,-635.3 1285.9168,-635.3 1143.6771,-635.3 1143.6771,-635.3 1137.6771,-635.3 1131.6771,-629.3 1131.6771,-623.3 1131.6771,-623.3 1131.6771,-600.1 1131.6771,-600.1 1131.6771,-594.1 1137.6771,-588.1 1143.6771,-588.1"/>
<text text-anchor="middle" x="1214.7969" y="-619.6" font-family="Helvetica,sans-Serif" font-size="13.00" fill="#000000">setTatami_rowscan(2,4,6)</text>
<polyline fill="none" stroke="#000000" points="1131.6771,-611.7 1297.9168,-611.7 "/>
<text text-anchor="middle" x="1214.7969" y="-596" font-family="Helvetica,sans-Serif" font-size="13.00" fill="#000000">ret: None</text>
</g>
<!-- 67264760&#45;&gt;67290104 -->
<g id="edge44" class="edge">
<title>67264760&#45;&gt;67290104</title>
<path fill="none" stroke="#565656" d="M1214.7969,-681.8303C1214.7969,-670.8325 1214.7969,-657.5547 1214.7969,-645.5244"/>
<polygon fill="#565656" stroke="#565656" points="1218.297,-645.3621 1214.7969,-635.3621 1211.297,-645.3622 1218.297,-645.3621"/>
<text text-anchor="middle" x="1230.8009" y="-656.2" font-family="Helvetica,sans-Serif" font-size="8.00" fill="#999999">43 (⇑39)</text>
</g>
<!-- 67291016 -->
<g id="node45" class="node">
<title>67291016</title>
<path fill="none" stroke="#000000" d="M1143.6771,-494.3C1143.6771,-494.3 1285.9168,-494.3 1285.9168,-494.3 1291.9168,-494.3 1297.9168,-500.3 1297.9168,-506.3 1297.9168,-506.3 1297.9168,-529.5 1297.9168,-529.5 1297.9168,-535.5 1291.9168,-541.5 1285.9168,-541.5 1285.9168,-541.5 1143.6771,-541.5 1143.6771,-541.5 1137.6771,-541.5 1131.6771,-535.5 1131.6771,-529.5 1131.6771,-529.5 1131.6771,-506.3 1131.6771,-506.3 1131.6771,-500.3 1137.6771,-494.3 1143.6771,-494.3"/>
<text text-anchor="middle" x="1214.7969" y="-525.8" font-family="Helvetica,sans-Serif" font-size="13.00" fill="#000000">setTatami_rowscan(2,5,6)</text>
<polyline fill="none" stroke="#000000" points="1131.6771,-517.9 1297.9168,-517.9 "/>
<text text-anchor="middle" x="1214.7969" y="-502.2" font-family="Helvetica,sans-Serif" font-size="13.00" fill="#000000">ret: None</text>
</g>
<!-- 67290104&#45;&gt;67291016 -->
<g id="edge45" class="edge">
<title>67290104&#45;&gt;67291016</title>
<path fill="none" stroke="#585858" d="M1214.7969,-588.0303C1214.7969,-577.0325 1214.7969,-563.7547 1214.7969,-551.7244"/>
<polygon fill="#585858" stroke="#585858" points="1218.297,-551.5621 1214.7969,-541.5621 1211.297,-551.5622 1218.297,-551.5621"/>
<text text-anchor="middle" x="1230.8009" y="-562.4" font-family="Helvetica,sans-Serif" font-size="8.00" fill="#999999">44 (⇑38)</text>
</g>
<!-- 68106400 -->
<g id="node46" class="node">
<title>68106400</title>
<path fill="none" stroke="#000000" d="M1143.6771,-400.5C1143.6771,-400.5 1285.9168,-400.5 1285.9168,-400.5 1291.9168,-400.5 1297.9168,-406.5 1297.9168,-412.5 1297.9168,-412.5 1297.9168,-435.7 1297.9168,-435.7 1297.9168,-441.7 1291.9168,-447.7 1285.9168,-447.7 1285.9168,-447.7 1143.6771,-447.7 1143.6771,-447.7 1137.6771,-447.7 1131.6771,-441.7 1131.6771,-435.7 1131.6771,-435.7 1131.6771,-412.5 1131.6771,-412.5 1131.6771,-406.5 1137.6771,-400.5 1143.6771,-400.5"/>
<text text-anchor="middle" x="1214.7969" y="-432" font-family="Helvetica,sans-Serif" font-size="13.00" fill="#000000">setTatami_rowscan(3,1,6)</text>
<polyline fill="none" stroke="#000000" points="1131.6771,-424.1 1297.9168,-424.1 "/>
<text text-anchor="middle" x="1214.7969" y="-408.4" font-family="Helvetica,sans-Serif" font-size="13.00" fill="#000000">ret: None</text>
</g>
<!-- 67291016&#45;&gt;68106400 -->
<g id="edge46" class="edge">
<title>67291016&#45;&gt;68106400</title>
<path fill="none" stroke="#5a5a5a" d="M1214.7969,-494.2303C1214.7969,-483.2325 1214.7969,-469.9547 1214.7969,-457.9244"/>
<polygon fill="#5a5a5a" stroke="#5a5a5a" points="1218.297,-457.7621 1214.7969,-447.7621 1211.297,-457.7622 1218.297,-457.7621"/>
<text text-anchor="middle" x="1230.8009" y="-468.6" font-family="Helvetica,sans-Serif" font-size="8.00" fill="#999999">45 (⇑37)</text>
</g>
<!-- 68107560 -->
<g id="node48" class="node">
<title>68107560</title>
<path fill="none" stroke="#000000" d="M1327.6771,-963.3C1327.6771,-963.3 1469.9168,-963.3 1469.9168,-963.3 1475.9168,-963.3 1481.9168,-969.3 1481.9168,-975.3 1481.9168,-975.3 1481.9168,-998.5 1481.9168,-998.5 1481.9168,-1004.5 1475.9168,-1010.5 1469.9168,-1010.5 1469.9168,-1010.5 1327.6771,-1010.5 1327.6771,-1010.5 1321.6771,-1010.5 1315.6771,-1004.5 1315.6771,-998.5 1315.6771,-998.5 1315.6771,-975.3 1315.6771,-975.3 1315.6771,-969.3 1321.6771,-963.3 1327.6771,-963.3"/>
<text text-anchor="middle" x="1398.7969" y="-994.8" font-family="Helvetica,sans-Serif" font-size="13.00" fill="#000000">setTatami_rowscan(1,5,4)</text>
<polyline fill="none" stroke="#000000" points="1315.6771,-986.9 1481.9168,-986.9 "/>
<text text-anchor="middle" x="1398.7969" y="-971.2" font-family="Helvetica,sans-Serif" font-size="13.00" fill="#000000">ret: None</text>
</g>
<!-- 68107160&#45;&gt;68107560 -->
<g id="edge47" class="edge">
<title>68107160&#45;&gt;68107560</title>
<path fill="none" stroke="#5e5e5e" d="M1398.7969,-1057.0303C1398.7969,-1046.0325 1398.7969,-1032.7547 1398.7969,-1020.7244"/>
<polygon fill="#5e5e5e" stroke="#5e5e5e" points="1402.297,-1020.5621 1398.7969,-1010.5621 1395.297,-1020.5622 1402.297,-1020.5621"/>
<text text-anchor="middle" x="1414.8009" y="-1031.4" font-family="Helvetica,sans-Serif" font-size="8.00" fill="#999999">47 (⇑58)</text>
</g>
<!-- 67290560 -->
<g id="node62" class="node">
<title>67290560</title>
<path fill="none" stroke="#000000" d="M1529.6771,-963.3C1529.6771,-963.3 1671.9168,-963.3 1671.9168,-963.3 1677.9168,-963.3 1683.9168,-969.3 1683.9168,-975.3 1683.9168,-975.3 1683.9168,-998.5 1683.9168,-998.5 1683.9168,-1004.5 1677.9168,-1010.5 1671.9168,-1010.5 1671.9168,-1010.5 1529.6771,-1010.5 1529.6771,-1010.5 1523.6771,-1010.5 1517.6771,-1004.5 1517.6771,-998.5 1517.6771,-998.5 1517.6771,-975.3 1517.6771,-975.3 1517.6771,-969.3 1523.6771,-963.3 1529.6771,-963.3"/>
<text text-anchor="middle" x="1600.7969" y="-994.8" font-family="Helvetica,sans-Serif" font-size="13.00" fill="#000000">setTatami_rowscan(1,4,4)</text>
<polyline fill="none" stroke="#000000" points="1517.6771,-986.9 1683.9168,-986.9 "/>
<text text-anchor="middle" x="1600.7969" y="-971.2" font-family="Helvetica,sans-Serif" font-size="13.00" fill="#000000">ret: None</text>
</g>
<!-- 68107160&#45;&gt;67290560 -->
<g id="edge48" class="edge">
<title>68107160&#45;&gt;67290560</title>
<path fill="none" stroke="#7a7a7a" d="M1449.77,-1057.0303C1477.4013,-1044.1995 1511.7157,-1028.2654 1540.6501,-1014.8295"/>
<polygon fill="#7a7a7a" stroke="#7a7a7a" points="1542.2443,-1017.9483 1549.8401,-1010.5621 1539.2961,-1011.5994 1542.2443,-1017.9483"/>
<text text-anchor="middle" x="1522.8009" y="-1031.4" font-family="Helvetica,sans-Serif" font-size="8.00" fill="#999999">61 (⇑67)</text>
</g>
<!-- 68108320 -->
<g id="node49" class="node">
<title>68108320</title>
<path fill="none" stroke="#000000" d="M1327.6771,-869.5C1327.6771,-869.5 1469.9168,-869.5 1469.9168,-869.5 1475.9168,-869.5 1481.9168,-875.5 1481.9168,-881.5 1481.9168,-881.5 1481.9168,-904.7 1481.9168,-904.7 1481.9168,-910.7 1475.9168,-916.7 1469.9168,-916.7 1469.9168,-916.7 1327.6771,-916.7 1327.6771,-916.7 1321.6771,-916.7 1315.6771,-910.7 1315.6771,-904.7 1315.6771,-904.7 1315.6771,-881.5 1315.6771,-881.5 1315.6771,-875.5 1321.6771,-869.5 1327.6771,-869.5"/>
<text text-anchor="middle" x="1398.7969" y="-901" font-family="Helvetica,sans-Serif" font-size="13.00" fill="#000000">setTatami_rowscan(2,1,4)</text>
<polyline fill="none" stroke="#000000" points="1315.6771,-893.1 1481.9168,-893.1 "/>
<text text-anchor="middle" x="1398.7969" y="-877.4" font-family="Helvetica,sans-Serif" font-size="13.00" fill="#000000">ret: None</text>
</g>
<!-- 68107560&#45;&gt;68108320 -->
<g id="edge49" class="edge">
<title>68107560&#45;&gt;68108320</title>
<path fill="none" stroke="#606060" d="M1398.7969,-963.2303C1398.7969,-952.2325 1398.7969,-938.9547 1398.7969,-926.9244"/>
<polygon fill="#606060" stroke="#606060" points="1402.297,-926.7621 1398.7969,-916.7621 1395.297,-926.7622 1402.297,-926.7621"/>
<text text-anchor="middle" x="1414.8009" y="-937.6" font-family="Helvetica,sans-Serif" font-size="8.00" fill="#999999">48 (⇑57)</text>
</g>
<!-- 68109080 -->
<g id="node50" class="node">
<title>68109080</title>
<path fill="none" stroke="#000000" d="M1327.6771,-775.7C1327.6771,-775.7 1469.9168,-775.7 1469.9168,-775.7 1475.9168,-775.7 1481.9168,-781.7 1481.9168,-787.7 1481.9168,-787.7 1481.9168,-810.9 1481.9168,-810.9 1481.9168,-816.9 1475.9168,-822.9 1469.9168,-822.9 1469.9168,-822.9 1327.6771,-822.9 1327.6771,-822.9 1321.6771,-822.9 1315.6771,-816.9 1315.6771,-810.9 1315.6771,-810.9 1315.6771,-787.7 1315.6771,-787.7 1315.6771,-781.7 1321.6771,-775.7 1327.6771,-775.7"/>
<text text-anchor="middle" x="1398.7969" y="-807.2" font-family="Helvetica,sans-Serif" font-size="13.00" fill="#000000">setTatami_rowscan(2,2,4)</text>
<polyline fill="none" stroke="#000000" points="1315.6771,-799.3 1481.9168,-799.3 "/>
<text text-anchor="middle" x="1398.7969" y="-783.6" font-family="Helvetica,sans-Serif" font-size="13.00" fill="#000000">ret: None</text>
</g>
<!-- 68108320&#45;&gt;68109080 -->
<g id="edge50" class="edge">
<title>68108320&#45;&gt;68109080</title>
<path fill="none" stroke="#626262" d="M1398.7969,-869.4303C1398.7969,-858.4325 1398.7969,-845.1547 1398.7969,-833.1244"/>
<polygon fill="#626262" stroke="#626262" points="1402.297,-832.9621 1398.7969,-822.9621 1395.297,-832.9622 1402.297,-832.9621"/>
<text text-anchor="middle" x="1414.8009" y="-843.8" font-family="Helvetica,sans-Serif" font-size="8.00" fill="#999999">49 (⇑56)</text>
</g>
<!-- 68112016 -->
<g id="node51" class="node">
<title>68112016</title>
<path fill="none" stroke="#000000" d="M1327.6771,-681.9C1327.6771,-681.9 1469.9168,-681.9 1469.9168,-681.9 1475.9168,-681.9 1481.9168,-687.9 1481.9168,-693.9 1481.9168,-693.9 1481.9168,-717.1 1481.9168,-717.1 1481.9168,-723.1 1475.9168,-729.1 1469.9168,-729.1 1469.9168,-729.1 1327.6771,-729.1 1327.6771,-729.1 1321.6771,-729.1 1315.6771,-723.1 1315.6771,-717.1 1315.6771,-717.1 1315.6771,-693.9 1315.6771,-693.9 1315.6771,-687.9 1321.6771,-681.9 1327.6771,-681.9"/>
<text text-anchor="middle" x="1398.7969" y="-713.4" font-family="Helvetica,sans-Serif" font-size="13.00" fill="#000000">setTatami_rowscan(2,3,4)</text>
<polyline fill="none" stroke="#000000" points="1315.6771,-705.5 1481.9168,-705.5 "/>
<text text-anchor="middle" x="1398.7969" y="-689.8" font-family="Helvetica,sans-Serif" font-size="13.00" fill="#000000">ret: None</text>
</g>
<!-- 68109080&#45;&gt;68112016 -->
<g id="edge51" class="edge">
<title>68109080&#45;&gt;68112016</title>
<path fill="none" stroke="#646464" d="M1398.7969,-775.6303C1398.7969,-764.6325 1398.7969,-751.3547 1398.7969,-739.3244"/>
<polygon fill="#646464" stroke="#646464" points="1402.297,-739.1621 1398.7969,-729.1621 1395.297,-739.1622 1402.297,-739.1621"/>
<text text-anchor="middle" x="1414.8009" y="-750" font-family="Helvetica,sans-Serif" font-size="8.00" fill="#999999">50 (⇑55)</text>
</g>
<!-- 68118360 -->
<g id="node52" class="node">
<title>68118360</title>
<path fill="none" stroke="#000000" d="M1327.6771,-588.1C1327.6771,-588.1 1469.9168,-588.1 1469.9168,-588.1 1475.9168,-588.1 1481.9168,-594.1 1481.9168,-600.1 1481.9168,-600.1 1481.9168,-623.3 1481.9168,-623.3 1481.9168,-629.3 1475.9168,-635.3 1469.9168,-635.3 1469.9168,-635.3 1327.6771,-635.3 1327.6771,-635.3 1321.6771,-635.3 1315.6771,-629.3 1315.6771,-623.3 1315.6771,-623.3 1315.6771,-600.1 1315.6771,-600.1 1315.6771,-594.1 1321.6771,-588.1 1327.6771,-588.1"/>
<text text-anchor="middle" x="1398.7969" y="-619.6" font-family="Helvetica,sans-Serif" font-size="13.00" fill="#000000">setTatami_rowscan(2,5,5)</text>
<polyline fill="none" stroke="#000000" points="1315.6771,-611.7 1481.9168,-611.7 "/>
<text text-anchor="middle" x="1398.7969" y="-596" font-family="Helvetica,sans-Serif" font-size="13.00" fill="#000000">ret: None</text>
</g>
<!-- 68112016&#45;&gt;68118360 -->
<g id="edge52" class="edge">
<title>68112016&#45;&gt;68118360</title>
<path fill="none" stroke="#666666" d="M1398.7969,-681.8303C1398.7969,-670.8325 1398.7969,-657.5547 1398.7969,-645.5244"/>
<polygon fill="#666666" stroke="#666666" points="1402.297,-645.3621 1398.7969,-635.3621 1395.297,-645.3622 1402.297,-645.3621"/>
<text text-anchor="middle" x="1414.8009" y="-656.2" font-family="Helvetica,sans-Serif" font-size="8.00" fill="#999999">51 (⇑47)</text>
</g>
<!-- 68135976 -->
<g id="node55" class="node">
<title>68135976</title>
<path fill="none" stroke="#000000" d="M1511.6771,-588.1C1511.6771,-588.1 1653.9168,-588.1 1653.9168,-588.1 1659.9168,-588.1 1665.9168,-594.1 1665.9168,-600.1 1665.9168,-600.1 1665.9168,-623.3 1665.9168,-623.3 1665.9168,-629.3 1659.9168,-635.3 1653.9168,-635.3 1653.9168,-635.3 1511.6771,-635.3 1511.6771,-635.3 1505.6771,-635.3 1499.6771,-629.3 1499.6771,-623.3 1499.6771,-623.3 1499.6771,-600.1 1499.6771,-600.1 1499.6771,-594.1 1505.6771,-588.1 1511.6771,-588.1"/>
<text text-anchor="middle" x="1582.7969" y="-619.6" font-family="Helvetica,sans-Serif" font-size="13.00" fill="#000000">setTatami_rowscan(2,4,5)</text>
<polyline fill="none" stroke="#000000" points="1499.6771,-611.7 1665.9168,-611.7 "/>
<text text-anchor="middle" x="1582.7969" y="-596" font-family="Helvetica,sans-Serif" font-size="13.00" fill="#000000">ret: None</text>
</g>
<!-- 68112016&#45;&gt;68135976 -->
<g id="edge53" class="edge">
<title>68112016&#45;&gt;68135976</title>
<path fill="none" stroke="#6c6c6c" d="M1445.2279,-681.8303C1470.179,-669.1106 1501.1128,-653.3411 1527.3241,-639.9791"/>
<polygon fill="#6c6c6c" stroke="#6c6c6c" points="1529.0613,-643.0221 1536.3808,-635.3621 1525.882,-636.7857 1529.0613,-643.0221"/>
<text text-anchor="middle" x="1512.8009" y="-656.2" font-family="Helvetica,sans-Serif" font-size="8.00" fill="#999999">54 (⇑54)</text>
</g>
<!-- 68125416 -->
<g id="node53" class="node">
<title>68125416</title>
<path fill="none" stroke="#000000" d="M1327.6771,-494.3C1327.6771,-494.3 1469.9168,-494.3 1469.9168,-494.3 1475.9168,-494.3 1481.9168,-500.3 1481.9168,-506.3 1481.9168,-506.3 1481.9168,-529.5 1481.9168,-529.5 1481.9168,-535.5 1475.9168,-541.5 1469.9168,-541.5 1469.9168,-541.5 1327.6771,-541.5 1327.6771,-541.5 1321.6771,-541.5 1315.6771,-535.5 1315.6771,-529.5 1315.6771,-529.5 1315.6771,-506.3 1315.6771,-506.3 1315.6771,-500.3 1321.6771,-494.3 1327.6771,-494.3"/>
<text text-anchor="middle" x="1398.7969" y="-525.8" font-family="Helvetica,sans-Serif" font-size="13.00" fill="#000000">setTatami_rowscan(3,1,5)</text>
<polyline fill="none" stroke="#000000" points="1315.6771,-517.9 1481.9168,-517.9 "/>
<text text-anchor="middle" x="1398.7969" y="-502.2" font-family="Helvetica,sans-Serif" font-size="13.00" fill="#000000">ret: None</text>
</g>
<!-- 68118360&#45;&gt;68125416 -->
<g id="edge54" class="edge">
<title>68118360&#45;&gt;68125416</title>
<path fill="none" stroke="#686868" d="M1398.7969,-588.0303C1398.7969,-577.0325 1398.7969,-563.7547 1398.7969,-551.7244"/>
<polygon fill="#686868" stroke="#686868" points="1402.297,-551.5621 1398.7969,-541.5621 1395.297,-551.5622 1402.297,-551.5621"/>
<text text-anchor="middle" x="1414.8009" y="-562.4" font-family="Helvetica,sans-Serif" font-size="8.00" fill="#999999">52 (⇑46)</text>
</g>
<!-- 68133184 -->
<g id="node54" class="node">
<title>68133184</title>
<path fill="none" stroke="#000000" d="M1327.6771,-400.5C1327.6771,-400.5 1469.9168,-400.5 1469.9168,-400.5 1475.9168,-400.5 1481.9168,-406.5 1481.9168,-412.5 1481.9168,-412.5 1481.9168,-435.7 1481.9168,-435.7 1481.9168,-441.7 1475.9168,-447.7 1469.9168,-447.7 1469.9168,-447.7 1327.6771,-447.7 1327.6771,-447.7 1321.6771,-447.7 1315.6771,-441.7 1315.6771,-435.7 1315.6771,-435.7 1315.6771,-412.5 1315.6771,-412.5 1315.6771,-406.5 1321.6771,-400.5 1327.6771,-400.5"/>
<text text-anchor="middle" x="1398.7969" y="-432" font-family="Helvetica,sans-Serif" font-size="13.00" fill="#000000">setTatami_rowscan(3,3,6)</text>
<polyline fill="none" stroke="#000000" points="1315.6771,-424.1 1481.9168,-424.1 "/>
<text text-anchor="middle" x="1398.7969" y="-408.4" font-family="Helvetica,sans-Serif" font-size="13.00" fill="#000000">ret: None</text>
</g>
<!-- 68125416&#45;&gt;68133184 -->
<g id="edge55" class="edge">
<title>68125416&#45;&gt;68133184</title>
<path fill="none" stroke="#6a6a6a" d="M1398.7969,-494.2303C1398.7969,-483.2325 1398.7969,-469.9547 1398.7969,-457.9244"/>
<polygon fill="#6a6a6a" stroke="#6a6a6a" points="1402.297,-457.7621 1398.7969,-447.7621 1395.297,-457.7622 1402.297,-457.7621"/>
<text text-anchor="middle" x="1414.8009" y="-468.6" font-family="Helvetica,sans-Serif" font-size="8.00" fill="#999999">53 (⇑45)</text>
</g>
<!-- 68136376 -->
<g id="node56" class="node">
<title>68136376</title>
<path fill="none" stroke="#000000" d="M1511.6771,-494.3C1511.6771,-494.3 1653.9168,-494.3 1653.9168,-494.3 1659.9168,-494.3 1665.9168,-500.3 1665.9168,-506.3 1665.9168,-506.3 1665.9168,-529.5 1665.9168,-529.5 1665.9168,-535.5 1659.9168,-541.5 1653.9168,-541.5 1653.9168,-541.5 1511.6771,-541.5 1511.6771,-541.5 1505.6771,-541.5 1499.6771,-535.5 1499.6771,-529.5 1499.6771,-529.5 1499.6771,-506.3 1499.6771,-506.3 1499.6771,-500.3 1505.6771,-494.3 1511.6771,-494.3"/>
<text text-anchor="middle" x="1582.7969" y="-525.8" font-family="Helvetica,sans-Serif" font-size="13.00" fill="#000000">setTatami_rowscan(2,5,6)</text>
<polyline fill="none" stroke="#000000" points="1499.6771,-517.9 1665.9168,-517.9 "/>
<text text-anchor="middle" x="1582.7969" y="-502.2" font-family="Helvetica,sans-Serif" font-size="13.00" fill="#000000">ret: None</text>
</g>
<!-- 68135976&#45;&gt;68136376 -->
<g id="edge56" class="edge">
<title>68135976&#45;&gt;68136376</title>
<path fill="none" stroke="#6e6e6e" d="M1582.7969,-588.0303C1582.7969,-577.0325 1582.7969,-563.7547 1582.7969,-551.7244"/>
<polygon fill="#6e6e6e" stroke="#6e6e6e" points="1586.297,-551.5621 1582.7969,-541.5621 1579.297,-551.5622 1586.297,-551.5621"/>
<text text-anchor="middle" x="1598.8009" y="-562.4" font-family="Helvetica,sans-Serif" font-size="8.00" fill="#999999">55 (⇑53)</text>
</g>
<!-- 68137136 -->
<g id="node57" class="node">
<title>68137136</title>
<path fill="none" stroke="#000000" d="M1511.6771,-400.5C1511.6771,-400.5 1653.9168,-400.5 1653.9168,-400.5 1659.9168,-400.5 1665.9168,-406.5 1665.9168,-412.5 1665.9168,-412.5 1665.9168,-435.7 1665.9168,-435.7 1665.9168,-441.7 1659.9168,-447.7 1653.9168,-447.7 1653.9168,-447.7 1511.6771,-447.7 1511.6771,-447.7 1505.6771,-447.7 1499.6771,-441.7 1499.6771,-435.7 1499.6771,-435.7 1499.6771,-412.5 1499.6771,-412.5 1499.6771,-406.5 1505.6771,-400.5 1511.6771,-400.5"/>
<text text-anchor="middle" x="1582.7969" y="-432" font-family="Helvetica,sans-Serif" font-size="13.00" fill="#000000">setTatami_rowscan(3,1,6)</text>
<polyline fill="none" stroke="#000000" points="1499.6771,-424.1 1665.9168,-424.1 "/>
<text text-anchor="middle" x="1582.7969" y="-408.4" font-family="Helvetica,sans-Serif" font-size="13.00" fill="#000000">ret: None</text>
</g>
<!-- 68136376&#45;&gt;68137136 -->
<g id="edge57" class="edge">
<title>68136376&#45;&gt;68137136</title>
<path fill="none" stroke="#707070" d="M1582.7969,-494.2303C1582.7969,-483.2325 1582.7969,-469.9547 1582.7969,-457.9244"/>
<polygon fill="#707070" stroke="#707070" points="1586.297,-457.7621 1582.7969,-447.7621 1579.297,-457.7622 1586.297,-457.7621"/>
<text text-anchor="middle" x="1598.8009" y="-468.6" font-family="Helvetica,sans-Serif" font-size="8.00" fill="#999999">56 (⇑52)</text>
</g>
<!-- 67922824 -->
<g id="node58" class="node">
<title>67922824</title>
<path fill="none" stroke="#000000" d="M1511.6771,-306.7C1511.6771,-306.7 1653.9168,-306.7 1653.9168,-306.7 1659.9168,-306.7 1665.9168,-312.7 1665.9168,-318.7 1665.9168,-318.7 1665.9168,-341.9 1665.9168,-341.9 1665.9168,-347.9 1659.9168,-353.9 1653.9168,-353.9 1653.9168,-353.9 1511.6771,-353.9 1511.6771,-353.9 1505.6771,-353.9 1499.6771,-347.9 1499.6771,-341.9 1499.6771,-341.9 1499.6771,-318.7 1499.6771,-318.7 1499.6771,-312.7 1505.6771,-306.7 1511.6771,-306.7"/>
<text text-anchor="middle" x="1582.7969" y="-338.2" font-family="Helvetica,sans-Serif" font-size="13.00" fill="#000000">setTatami_rowscan(3,3,7)</text>
<polyline fill="none" stroke="#000000" points="1499.6771,-330.3 1665.9168,-330.3 "/>
<text text-anchor="middle" x="1582.7969" y="-314.6" font-family="Helvetica,sans-Serif" font-size="13.00" fill="#000000">ret: None</text>
</g>
<!-- 68137136&#45;&gt;67922824 -->
<g id="edge58" class="edge">
<title>68137136&#45;&gt;67922824</title>
<path fill="none" stroke="#727272" d="M1582.7969,-400.4303C1582.7969,-389.4325 1582.7969,-376.1547 1582.7969,-364.1244"/>
<polygon fill="#727272" stroke="#727272" points="1586.297,-363.9621 1582.7969,-353.9621 1579.297,-363.9622 1586.297,-363.9621"/>
<text text-anchor="middle" x="1598.8009" y="-374.8" font-family="Helvetica,sans-Serif" font-size="8.00" fill="#999999">57 (⇑51)</text>
</g>
<!-- 67923584 -->
<g id="node59" class="node">
<title>67923584</title>
<path fill="none" stroke="#000000" d="M1511.6771,-212.9C1511.6771,-212.9 1653.9168,-212.9 1653.9168,-212.9 1659.9168,-212.9 1665.9168,-218.9 1665.9168,-224.9 1665.9168,-224.9 1665.9168,-248.1 1665.9168,-248.1 1665.9168,-254.1 1659.9168,-260.1 1653.9168,-260.1 1653.9168,-260.1 1511.6771,-260.1 1511.6771,-260.1 1505.6771,-260.1 1499.6771,-254.1 1499.6771,-248.1 1499.6771,-248.1 1499.6771,-224.9 1499.6771,-224.9 1499.6771,-218.9 1505.6771,-212.9 1511.6771,-212.9"/>
<text text-anchor="middle" x="1582.7969" y="-244.4" font-family="Helvetica,sans-Serif" font-size="13.00" fill="#000000">setTatami_rowscan(3,4,7)</text>
<polyline fill="none" stroke="#000000" points="1499.6771,-236.5 1665.9168,-236.5 "/>
<text text-anchor="middle" x="1582.7969" y="-220.8" font-family="Helvetica,sans-Serif" font-size="13.00" fill="#000000">ret: None</text>
</g>
<!-- 67922824&#45;&gt;67923584 -->
<g id="edge59" class="edge">
<title>67922824&#45;&gt;67923584</title>
<path fill="none" stroke="#747474" d="M1582.7969,-306.6303C1582.7969,-295.6325 1582.7969,-282.3547 1582.7969,-270.3244"/>
<polygon fill="#747474" stroke="#747474" points="1586.297,-270.1621 1582.7969,-260.1621 1579.297,-270.1622 1586.297,-270.1621"/>
<text text-anchor="middle" x="1598.8009" y="-281" font-family="Helvetica,sans-Serif" font-size="8.00" fill="#999999">58 (⇑50)</text>
</g>
<!-- 67924344 -->
<g id="node60" class="node">
<title>67924344</title>
<path fill="none" stroke="#000000" d="M1511.6771,-119.1C1511.6771,-119.1 1653.9168,-119.1 1653.9168,-119.1 1659.9168,-119.1 1665.9168,-125.1 1665.9168,-131.1 1665.9168,-131.1 1665.9168,-154.3 1665.9168,-154.3 1665.9168,-160.3 1659.9168,-166.3 1653.9168,-166.3 1653.9168,-166.3 1511.6771,-166.3 1511.6771,-166.3 1505.6771,-166.3 1499.6771,-160.3 1499.6771,-154.3 1499.6771,-154.3 1499.6771,-131.1 1499.6771,-131.1 1499.6771,-125.1 1505.6771,-119.1 1511.6771,-119.1"/>
<text text-anchor="middle" x="1582.7969" y="-150.6" font-family="Helvetica,sans-Serif" font-size="13.00" fill="#000000">setTatami_rowscan(3,5,7)</text>
<polyline fill="none" stroke="#000000" points="1499.6771,-142.7 1665.9168,-142.7 "/>
<text text-anchor="middle" x="1582.7969" y="-127" font-family="Helvetica,sans-Serif" font-size="13.00" fill="#000000">ret: None</text>
</g>
<!-- 67923584&#45;&gt;67924344 -->
<g id="edge60" class="edge">
<title>67923584&#45;&gt;67924344</title>
<path fill="none" stroke="#767676" d="M1582.7969,-212.8303C1582.7969,-201.8325 1582.7969,-188.5547 1582.7969,-176.5244"/>
<polygon fill="#767676" stroke="#767676" points="1586.297,-176.3621 1582.7969,-166.3621 1579.297,-176.3622 1586.297,-176.3621"/>
<text text-anchor="middle" x="1598.8009" y="-187.2" font-family="Helvetica,sans-Serif" font-size="8.00" fill="#999999">59 (⇑49)</text>
</g>
<!-- 67925104 -->
<g id="node61" class="node">
<title>67925104</title>
<path fill="none" stroke="#000000" d="M1300,-25.3C1300,-25.3 1865.5938,-25.3 1865.5938,-25.3 1871.5938,-25.3 1877.5938,-31.3 1877.5938,-37.3 1877.5938,-37.3 1877.5938,-60.5 1877.5938,-60.5 1877.5938,-66.5 1871.5938,-72.5 1865.5938,-72.5 1865.5938,-72.5 1300,-72.5 1300,-72.5 1294,-72.5 1288,-66.5 1288,-60.5 1288,-60.5 1288,-37.3 1288,-37.3 1288,-31.3 1294,-25.3 1300,-25.3"/>
<text text-anchor="middle" x="1582.7969" y="-56.8" font-family="Helvetica,sans-Serif" font-size="13.00" fill="#000000">setTatami_rowscan(4,1,7)</text>
<polyline fill="none" stroke="#000000" points="1288,-48.9 1877.5938,-48.9 "/>
<text text-anchor="middle" x="1582.7969" y="-33.2" font-family="Helvetica,sans-Serif" font-size="13.00" fill="#000000">ret: [[&#45;1. &#45;1. &#45;1. &#45;1. &#45;1. &#45;1.] [&#45;1. 1. 2. 3. 3. &#45;1.] [&#45;1. 1. 2. 4. 5. &#45;1.] [&#45;1. 6. 6. 4. 5. &#45;1.] [&#45;1. &#45;1. &#45;1. &#45;1. &#45;1. &#45;1.]]</text>
</g>
<!-- 67924344&#45;&gt;67925104 -->
<g id="edge61" class="edge">
<title>67924344&#45;&gt;67925104</title>
<path fill="none" stroke="#787878" d="M1582.7969,-119.0303C1582.7969,-108.0325 1582.7969,-94.7547 1582.7969,-82.7244"/>
<polygon fill="#787878" stroke="#787878" points="1586.297,-82.5621 1582.7969,-72.5621 1579.297,-82.5622 1586.297,-82.5621"/>
<text text-anchor="middle" x="1598.8009" y="-93.4" font-family="Helvetica,sans-Serif" font-size="8.00" fill="#999999">60 (⇑48)</text>
</g>
<!-- 67928704 -->
<g id="node63" class="node">
<title>67928704</title>
<path fill="none" stroke="#000000" d="M1573.6771,-869.5C1573.6771,-869.5 1715.9168,-869.5 1715.9168,-869.5 1721.9168,-869.5 1727.9168,-875.5 1727.9168,-881.5 1727.9168,-881.5 1727.9168,-904.7 1727.9168,-904.7 1727.9168,-910.7 1721.9168,-916.7 1715.9168,-916.7 1715.9168,-916.7 1573.6771,-916.7 1573.6771,-916.7 1567.6771,-916.7 1561.6771,-910.7 1561.6771,-904.7 1561.6771,-904.7 1561.6771,-881.5 1561.6771,-881.5 1561.6771,-875.5 1567.6771,-869.5 1573.6771,-869.5"/>
<text text-anchor="middle" x="1644.7969" y="-901" font-family="Helvetica,sans-Serif" font-size="13.00" fill="#000000">setTatami_rowscan(1,5,5)</text>
<polyline fill="none" stroke="#000000" points="1561.6771,-893.1 1727.9168,-893.1 "/>
<text text-anchor="middle" x="1644.7969" y="-877.4" font-family="Helvetica,sans-Serif" font-size="13.00" fill="#000000">ret: None</text>
</g>
<!-- 67290560&#45;&gt;67928704 -->
<g id="edge62" class="edge">
<title>67290560&#45;&gt;67928704</title>
<path fill="none" stroke="#7c7c7c" d="M1611.9,-963.2303C1617.2152,-951.8992 1623.6657,-938.1479 1629.4418,-925.8343"/>
<polygon fill="#7c7c7c" stroke="#7c7c7c" points="1632.6192,-927.302 1633.6974,-916.7621 1626.2818,-924.3292 1632.6192,-927.302"/>
<text text-anchor="middle" x="1640.8009" y="-937.6" font-family="Helvetica,sans-Serif" font-size="8.00" fill="#999999">62 (⇑66)</text>
</g>
<!-- 67932112 -->
<g id="node64" class="node">
<title>67932112</title>
<path fill="none" stroke="#000000" d="M1604.6771,-775.7C1604.6771,-775.7 1746.9168,-775.7 1746.9168,-775.7 1752.9168,-775.7 1758.9168,-781.7 1758.9168,-787.7 1758.9168,-787.7 1758.9168,-810.9 1758.9168,-810.9 1758.9168,-816.9 1752.9168,-822.9 1746.9168,-822.9 1746.9168,-822.9 1604.6771,-822.9 1604.6771,-822.9 1598.6771,-822.9 1592.6771,-816.9 1592.6771,-810.9 1592.6771,-810.9 1592.6771,-787.7 1592.6771,-787.7 1592.6771,-781.7 1598.6771,-775.7 1604.6771,-775.7"/>
<text text-anchor="middle" x="1675.7969" y="-807.2" font-family="Helvetica,sans-Serif" font-size="13.00" fill="#000000">setTatami_rowscan(2,1,5)</text>
<polyline fill="none" stroke="#000000" points="1592.6771,-799.3 1758.9168,-799.3 "/>
<text text-anchor="middle" x="1675.7969" y="-783.6" font-family="Helvetica,sans-Serif" font-size="13.00" fill="#000000">ret: None</text>
</g>
<!-- 67928704&#45;&gt;67932112 -->
<g id="edge63" class="edge">
<title>67928704&#45;&gt;67932112</title>
<path fill="none" stroke="#7e7e7e" d="M1652.6195,-869.4303C1656.2909,-858.3214 1660.7311,-844.8862 1664.7386,-832.7602"/>
<polygon fill="#7e7e7e" stroke="#7e7e7e" points="1668.162,-833.5553 1667.9768,-822.9621 1661.5155,-831.3587 1668.162,-833.5553"/>
<text text-anchor="middle" x="1677.8009" y="-843.8" font-family="Helvetica,sans-Serif" font-size="8.00" fill="#999999">63 (⇑65)</text>
</g>
<!-- 67939592 -->
<g id="node65" class="node">
<title>67939592</title>
<path fill="none" stroke="#000000" d="M1620.6771,-681.9C1620.6771,-681.9 1762.9168,-681.9 1762.9168,-681.9 1768.9168,-681.9 1774.9168,-687.9 1774.9168,-693.9 1774.9168,-693.9 1774.9168,-717.1 1774.9168,-717.1 1774.9168,-723.1 1768.9168,-729.1 1762.9168,-729.1 1762.9168,-729.1 1620.6771,-729.1 1620.6771,-729.1 1614.6771,-729.1 1608.6771,-723.1 1608.6771,-717.1 1608.6771,-717.1 1608.6771,-693.9 1608.6771,-693.9 1608.6771,-687.9 1614.6771,-681.9 1620.6771,-681.9"/>
<text text-anchor="middle" x="1691.7969" y="-713.4" font-family="Helvetica,sans-Serif" font-size="13.00" fill="#000000">setTatami_rowscan(2,2,5)</text>
<polyline fill="none" stroke="#000000" points="1608.6771,-705.5 1774.9168,-705.5 "/>
<text text-anchor="middle" x="1691.7969" y="-689.8" font-family="Helvetica,sans-Serif" font-size="13.00" fill="#000000">ret: None</text>
</g>
<!-- 67932112&#45;&gt;67939592 -->
<g id="edge64" class="edge">
<title>67932112&#45;&gt;67939592</title>
<path fill="none" stroke="#808080" d="M1679.8344,-775.6303C1681.7103,-764.6325 1683.9752,-751.3547 1686.0273,-739.3244"/>
<polygon fill="#808080" stroke="#808080" points="1689.5293,-739.6083 1687.7607,-729.1621 1682.629,-738.4312 1689.5293,-739.6083"/>
<text text-anchor="middle" x="1700.8009" y="-750" font-family="Helvetica,sans-Serif" font-size="8.00" fill="#999999">64 (⇑64)</text>
</g>
<!-- 67929616 -->
<g id="node66" class="node">
<title>67929616</title>
<path fill="none" stroke="#000000" d="M1695.6771,-588.1C1695.6771,-588.1 1837.9168,-588.1 1837.9168,-588.1 1843.9168,-588.1 1849.9168,-594.1 1849.9168,-600.1 1849.9168,-600.1 1849.9168,-623.3 1849.9168,-623.3 1849.9168,-629.3 1843.9168,-635.3 1837.9168,-635.3 1837.9168,-635.3 1695.6771,-635.3 1695.6771,-635.3 1689.6771,-635.3 1683.6771,-629.3 1683.6771,-623.3 1683.6771,-623.3 1683.6771,-600.1 1683.6771,-600.1 1683.6771,-594.1 1689.6771,-588.1 1695.6771,-588.1"/>
<text text-anchor="middle" x="1766.7969" y="-619.6" font-family="Helvetica,sans-Serif" font-size="13.00" fill="#000000">setTatami_rowscan(2,3,5)</text>
<polyline fill="none" stroke="#000000" points="1683.6771,-611.7 1849.9168,-611.7 "/>
<text text-anchor="middle" x="1766.7969" y="-596" font-family="Helvetica,sans-Serif" font-size="13.00" fill="#000000">ret: None</text>
</g>
<!-- 67939592&#45;&gt;67929616 -->
<g id="edge65" class="edge">
<title>67939592&#45;&gt;67929616</title>
<path fill="none" stroke="#828282" d="M1710.7226,-681.8303C1720.0491,-670.166 1731.4262,-655.9369 1741.4891,-643.3516"/>
<polygon fill="#828282" stroke="#828282" points="1744.3659,-645.3582 1747.8773,-635.3621 1738.8987,-640.9867 1744.3659,-645.3582"/>
<text text-anchor="middle" x="1747.8009" y="-656.2" font-family="Helvetica,sans-Serif" font-size="8.00" fill="#999999">65 (⇑63)</text>
</g>
<!-- 67956440 -->
<g id="node67" class="node">
<title>67956440</title>
<path fill="none" stroke="#000000" d="M1695.6771,-494.3C1695.6771,-494.3 1837.9168,-494.3 1837.9168,-494.3 1843.9168,-494.3 1849.9168,-500.3 1849.9168,-506.3 1849.9168,-506.3 1849.9168,-529.5 1849.9168,-529.5 1849.9168,-535.5 1843.9168,-541.5 1837.9168,-541.5 1837.9168,-541.5 1695.6771,-541.5 1695.6771,-541.5 1689.6771,-541.5 1683.6771,-535.5 1683.6771,-529.5 1683.6771,-529.5 1683.6771,-506.3 1683.6771,-506.3 1683.6771,-500.3 1689.6771,-494.3 1695.6771,-494.3"/>
<text text-anchor="middle" x="1766.7969" y="-525.8" font-family="Helvetica,sans-Serif" font-size="13.00" fill="#000000">setTatami_rowscan(2,4,5)</text>
<polyline fill="none" stroke="#000000" points="1683.6771,-517.9 1849.9168,-517.9 "/>
<text text-anchor="middle" x="1766.7969" y="-502.2" font-family="Helvetica,sans-Serif" font-size="13.00" fill="#000000">ret: None</text>
</g>
<!-- 67929616&#45;&gt;67956440 -->
<g id="edge66" class="edge">
<title>67929616&#45;&gt;67956440</title>
<path fill="none" stroke="#848484" d="M1766.7969,-588.0303C1766.7969,-577.0325 1766.7969,-563.7547 1766.7969,-551.7244"/>
<polygon fill="#848484" stroke="#848484" points="1770.297,-551.5621 1766.7969,-541.5621 1763.297,-551.5622 1770.297,-551.5621"/>
<text text-anchor="middle" x="1782.8009" y="-562.4" font-family="Helvetica,sans-Serif" font-size="8.00" fill="#999999">66 (⇑62)</text>
</g>
<!-- 67961344 -->
<g id="node68" class="node">
<title>67961344</title>
<path fill="none" stroke="#000000" d="M1695.6771,-400.5C1695.6771,-400.5 1837.9168,-400.5 1837.9168,-400.5 1843.9168,-400.5 1849.9168,-406.5 1849.9168,-412.5 1849.9168,-412.5 1849.9168,-435.7 1849.9168,-435.7 1849.9168,-441.7 1843.9168,-447.7 1837.9168,-447.7 1837.9168,-447.7 1695.6771,-447.7 1695.6771,-447.7 1689.6771,-447.7 1683.6771,-441.7 1683.6771,-435.7 1683.6771,-435.7 1683.6771,-412.5 1683.6771,-412.5 1683.6771,-406.5 1689.6771,-400.5 1695.6771,-400.5"/>
<text text-anchor="middle" x="1766.7969" y="-432" font-family="Helvetica,sans-Serif" font-size="13.00" fill="#000000">setTatami_rowscan(2,5,5)</text>
<polyline fill="none" stroke="#000000" points="1683.6771,-424.1 1849.9168,-424.1 "/>
<text text-anchor="middle" x="1766.7969" y="-408.4" font-family="Helvetica,sans-Serif" font-size="13.00" fill="#000000">ret: None</text>
</g>
<!-- 67956440&#45;&gt;67961344 -->
<g id="edge67" class="edge">
<title>67956440&#45;&gt;67961344</title>
<path fill="none" stroke="#868686" d="M1766.7969,-494.2303C1766.7969,-483.2325 1766.7969,-469.9547 1766.7969,-457.9244"/>
<polygon fill="#868686" stroke="#868686" points="1770.297,-457.7621 1766.7969,-447.7621 1763.297,-457.7622 1770.297,-457.7621"/>
<text text-anchor="middle" x="1782.8009" y="-468.6" font-family="Helvetica,sans-Serif" font-size="8.00" fill="#999999">67 (⇑61)</text>
</g>
<!-- 67962104 -->
<g id="node69" class="node">
<title>67962104</title>
<path fill="none" stroke="#000000" d="M1695.6771,-306.7C1695.6771,-306.7 1837.9168,-306.7 1837.9168,-306.7 1843.9168,-306.7 1849.9168,-312.7 1849.9168,-318.7 1849.9168,-318.7 1849.9168,-341.9 1849.9168,-341.9 1849.9168,-347.9 1843.9168,-353.9 1837.9168,-353.9 1837.9168,-353.9 1695.6771,-353.9 1695.6771,-353.9 1689.6771,-353.9 1683.6771,-347.9 1683.6771,-341.9 1683.6771,-341.9 1683.6771,-318.7 1683.6771,-318.7 1683.6771,-312.7 1689.6771,-306.7 1695.6771,-306.7"/>
<text text-anchor="middle" x="1766.7969" y="-338.2" font-family="Helvetica,sans-Serif" font-size="13.00" fill="#000000">setTatami_rowscan(3,1,5)</text>
<polyline fill="none" stroke="#000000" points="1683.6771,-330.3 1849.9168,-330.3 "/>
<text text-anchor="middle" x="1766.7969" y="-314.6" font-family="Helvetica,sans-Serif" font-size="13.00" fill="#000000">ret: None</text>
</g>
<!-- 67961344&#45;&gt;67962104 -->
<g id="edge68" class="edge">
<title>67961344&#45;&gt;67962104</title>
<path fill="none" stroke="#888888" d="M1766.7969,-400.4303C1766.7969,-389.4325 1766.7969,-376.1547 1766.7969,-364.1244"/>
<polygon fill="#888888" stroke="#888888" points="1770.297,-363.9621 1766.7969,-353.9621 1763.297,-363.9622 1770.297,-363.9621"/>
<text text-anchor="middle" x="1782.8009" y="-374.8" font-family="Helvetica,sans-Serif" font-size="8.00" fill="#999999">68 (⇑60)</text>
</g>
<!-- 67962864 -->
<g id="node70" class="node">
<title>67962864</title>
<path fill="none" stroke="#000000" d="M1695.6771,-212.9C1695.6771,-212.9 1837.9168,-212.9 1837.9168,-212.9 1843.9168,-212.9 1849.9168,-218.9 1849.9168,-224.9 1849.9168,-224.9 1849.9168,-248.1 1849.9168,-248.1 1849.9168,-254.1 1843.9168,-260.1 1837.9168,-260.1 1837.9168,-260.1 1695.6771,-260.1 1695.6771,-260.1 1689.6771,-260.1 1683.6771,-254.1 1683.6771,-248.1 1683.6771,-248.1 1683.6771,-224.9 1683.6771,-224.9 1683.6771,-218.9 1689.6771,-212.9 1695.6771,-212.9"/>
<text text-anchor="middle" x="1766.7969" y="-244.4" font-family="Helvetica,sans-Serif" font-size="13.00" fill="#000000">setTatami_rowscan(3,3,6)</text>
<polyline fill="none" stroke="#000000" points="1683.6771,-236.5 1849.9168,-236.5 "/>
<text text-anchor="middle" x="1766.7969" y="-220.8" font-family="Helvetica,sans-Serif" font-size="13.00" fill="#000000">ret: None</text>
</g>
<!-- 67962104&#45;&gt;67962864 -->
<g id="edge69" class="edge">
<title>67962104&#45;&gt;67962864</title>
<path fill="none" stroke="#8a8a8a" d="M1766.7969,-306.6303C1766.7969,-295.6325 1766.7969,-282.3547 1766.7969,-270.3244"/>
<polygon fill="#8a8a8a" stroke="#8a8a8a" points="1770.297,-270.1621 1766.7969,-260.1621 1763.297,-270.1622 1770.297,-270.1621"/>
<text text-anchor="middle" x="1782.8009" y="-281" font-family="Helvetica,sans-Serif" font-size="8.00" fill="#999999">69 (⇑59)</text>
</g>
</g>
</svg>
